<svg width="177" height="146" viewBox="0 0 177 146" fill="none" xmlns="http://www.w3.org/2000/svg">
<g clip-path="url(#clip0_1_45)">
<path fill-rule="evenodd" clip-rule="evenodd" d="M168.494 31.7449H177.001V50.8291H168.494V31.7449ZM130.233 45.777H54.8067V37.3822H130.233V0H138.739V82.3606H130.233V45.7763V45.777ZM142.655 10.0972H151.161V72.3707H142.655V10.0972ZM155.574 22.235H164.081V60.4027H155.574V22.235Z" fill="#FD3C3D"/>
<path fill-rule="evenodd" clip-rule="evenodd" d="M8.50681 67.079H0.000117302V47.9948H8.50681V67.079ZM84.4988 146H75.9921V61.3385H46.7682V98.8239H38.2615V61.3385V52.9437V16.4626H46.7682V52.9437H121.983V61.3385H84.4988V146ZM34.3462 88.7267H25.8395V26.4532H34.3462V88.7267ZM21.4268 76.5889H12.9201V38.4212H21.4268V76.5889Z" fill="#FD3C3D"/>
</g>
<defs>
<clipPath id="clip0_1_45">
<rect width="177" height="146" fill="white"/>
</clipPath>
</defs>
</svg>
