<svg width="349" height="189" viewBox="0 0 349 189" fill="none" xmlns="http://www.w3.org/2000/svg">
<g clip-path="url(#clip0_4_72)">
<path d="M140.657 188.286H130.045L123.67 177.723C123.191 176.922 122.733 176.21 122.293 175.574C121.854 174.948 121.414 174.412 120.965 173.963C120.516 173.513 120.048 173.171 119.56 172.926C119.071 172.692 118.545 172.575 117.978 172.575H115.488V188.286H106.244V147.24H120.888C130.845 147.24 135.824 150.963 135.824 158.398C135.824 159.835 135.599 161.153 135.161 162.364C134.721 163.575 134.107 164.67 133.307 165.647C132.506 166.614 131.539 167.455 130.407 168.158C129.265 168.871 128.006 169.418 126.61 169.818V169.935C127.225 170.131 127.811 170.433 128.388 170.864C128.964 171.294 129.511 171.793 130.047 172.368C130.584 172.944 131.091 173.56 131.58 174.215C132.068 174.869 132.508 175.514 132.908 176.15L140.66 188.284L140.657 188.286ZM115.49 154.167V165.589H119.492C121.474 165.589 123.065 165.012 124.266 163.869C125.487 162.706 126.101 161.26 126.101 159.549C126.101 155.954 123.954 154.166 119.659 154.166H115.49V154.167ZM180.555 188.286H170.49L167.571 179.151H152.985L150.096 188.286H140.08L155.016 147.24H165.97L180.555 188.286ZM165.453 172.058L161.051 158.261C160.729 157.225 160.495 155.995 160.358 154.568H160.134C160.036 155.769 159.801 156.962 159.422 158.144L154.96 172.058H165.455H165.453ZM194.915 188.286H185.671V147.24H194.915V188.286ZM241.128 188.286H231.805L214.898 162.492C213.912 160.988 213.218 159.854 212.839 159.092H212.731C212.878 160.538 212.957 162.755 212.957 165.726V188.286H204.23V147.24H214.187L230.461 172.223C231.203 173.357 231.887 174.47 232.521 175.574H232.637C232.481 174.626 232.402 172.74 232.402 169.937V147.24H241.13V188.286H241.128ZM259.745 188.286H250.501V147.24H259.745V188.286ZM305.958 188.286H296.636L279.728 162.492C278.742 160.988 278.049 159.854 277.669 159.092H277.562C277.708 160.538 277.787 162.755 277.787 165.726V188.286H269.06V147.24H279.018L295.292 172.223C296.034 173.357 296.718 174.47 297.351 175.574H297.468C297.312 174.626 297.233 172.74 297.233 169.937V147.24H305.96V188.286H305.958ZM349 185.54C344.998 187.846 340.019 188.999 334.064 188.999C327.474 188.999 322.27 187.171 318.464 183.517C314.667 179.863 312.763 174.831 312.763 168.421C312.763 161.973 314.843 156.716 319.001 152.652C323.149 148.577 328.684 146.546 335.587 146.546C339.931 146.546 343.768 147.152 347.078 148.353V157.029C343.914 155.192 340.049 154.284 335.47 154.284C331.634 154.284 328.521 155.525 326.108 158.017C323.687 160.508 322.486 163.829 322.486 167.992C322.486 172.203 323.57 175.467 325.727 177.782C327.894 180.087 330.813 181.24 334.494 181.24C336.71 181.24 338.467 180.928 339.756 180.302V172.28H331.555V164.894H349V185.539V185.54Z" fill="#FD3C3D"/>
<path fill-rule="evenodd" clip-rule="evenodd" d="M9.82058 85.5678H0V60.7485H9.82058V85.5678ZM97.5566 188.209H87.7361V78.101H53.9951V126.852H44.1745V78.101V67.1839V19.7388H53.9951V67.1839H140.835V78.101H97.5566V188.209ZM39.6526 113.721H29.832V32.7312H39.6526V113.721ZM24.7366 97.934H14.916V48.2939H24.7366V97.934Z" fill="#FD3C3D"/>
<path fill-rule="evenodd" clip-rule="evenodd" d="M197.221 65.8291H207.042V41.0098H197.221V65.8291ZM153.047 58.3639V107.115H162.868V58.3639V47.4468V0.00170898H153.047V47.4468H66.2074V58.3639H153.047ZM167.389 93.9836H177.21V12.994H167.389V93.9836ZM182.305 78.1969H192.126V28.5568H182.305V78.1969Z" fill="#FD3C3D"/>
</g>
<defs>
<clipPath id="clip0_4_72">
<rect width="349" height="189" fill="white"/>
</clipPath>
</defs>
</svg>
