<svg xmlns="http://www.w3.org/2000/svg" viewBox="0 0 133.33 133.34"><defs><style>.cls-1{fill:#e2e2e2;}.cls-2{fill:#fff;}.cls-3{fill:#848484;}.cls-4{fill:#757575;}.cls-5{fill:#9b9b9b;}.cls-6{fill:#b5b5b5;}</style></defs><g id="Layer_2" data-name="Layer 2"><g id="OBJECTS"><path class="cls-1" d="M133.33,66.67a66.53,66.53,0,0,1-26.86,53.48h0a66.64,66.64,0,0,1-10.69,6.49c-.26.14-.53.26-.8.39h0l-.1,0-1.51.68-.49.21c-.78.34-1.56.66-2.35,1h0q-2.3.9-4.66,1.6h0l-.12,0-.85.25-1,.28c-1.25.33-2.52.63-3.8.89a64.54,64.54,0,0,1-9.18,1.2l-1.26.07c-1,0-2,.07-2.93.07-1.92,0-3.83-.08-5.71-.25-.34,0-.67-.05-1-.09l-.5-.05a64.66,64.66,0,0,1-6.71-1.07h0c-.72-.15-1.44-.32-2.15-.5s-1.23-.31-1.84-.48h0c-.69-.19-1.37-.39-2-.61l-1-.32c-1.51-.5-3-1.05-4.46-1.66l-.43-.18A65.64,65.64,0,0,1,32,123.65a66.67,66.67,0,1,1,101.3-57Z"/><rect class="cls-2" x="64.82" y="106.17" width="14.12" height="12.97"/><path d="M64.32,105.66v14H79.45v-14Zm14.12,13H65.33v-12H78.44Z"/><path d="M45.15,72.27c-.07-.14-.35-.75-.81-1.54-.15-.26-.32-.55-.51-.84s-.27-.41-.42-.62-.28-.38-.42-.58c-1.11-1.42-2.55-2.76-4.18-3A4.26,4.26,0,0,0,35,67.4a5.13,5.13,0,0,0-1.29,2.91c-.23,2,.65,4.36,2.6,6.66,1.8,2.13,4.37,3.94,6.48,4.32l.53.06h.5A2.53,2.53,0,0,0,45,81C48.72,78.66,45.43,72.75,45.15,72.27Zm-.71,7.85a1.74,1.74,0,0,1-.78.23,2.93,2.93,0,0,1-.51,0,3.39,3.39,0,0,1-.52-.1A11.94,11.94,0,0,1,37,76.32c-.74-.88-2.64-3.4-2.37-5.89a4.2,4.2,0,0,1,1-2.36,3.48,3.48,0,0,1,2.56-1.42,2.43,2.43,0,0,1,.38,0c1.61.24,3.08,1.92,4.11,3.45.14.21.28.42.4.62l0,0,.43.72c.38.69.6,1.17.61,1.19l0,.05S47.43,78.27,44.44,80.12Z"/><path class="cls-3" d="M44.05,75.46s-3.94-7.23-5.75-4.77,2.63,7.56,5.91,7.39S44.05,75.46,44.05,75.46Z"/><path d="M107.16,67.4a4.25,4.25,0,0,0-3.85-1.72,7,7,0,0,0-4,2.84A17.76,17.76,0,0,0,98,70.37l-.33.54c0,.07-.07.14-.11.2l-.42.79c-.08.19-.14.31-.17.37-.28.47-3.47,6.24,0,8.61h0l.14.09.32.17a3.65,3.65,0,0,0,.5.15,3.21,3.21,0,0,0,.63.06c2.22,0,5.23-2,7.24-4.39C108.84,73.45,109.33,69.87,107.16,67.4Zm-2.08,8.92c-2.26,2.68-5.35,4.39-7,4a1.36,1.36,0,0,1-.41-.17l-.08-.06a2,2,0,0,1-.47-.39c-1.38-1.48-.53-4.18.14-5.73.18-.41.34-.74.45-.94l.13-.24,0-.05s.11-.24.3-.6c.75-1.45,2.86-5.06,5.29-5.43a2.34,2.34,0,0,1,.38,0,3.45,3.45,0,0,1,2.55,1.42C109.08,71.12,106.07,75.16,105.08,76.32Z"/><path class="cls-3" d="M98.08,75.46s3.94-7.23,5.75-4.77-2.63,7.56-5.92,7.39S98.08,75.46,98.08,75.46Z"/><ellipse class="cls-2" cx="70.36" cy="75.79" rx="27.47" ry="34"/><path d="M97.55,71l-.12.07-.12.06a.28.28,0,0,1-.12,0,.27.27,0,0,1-.12,0c0,.23.06.47.07.71l.42-.79A.25.25,0,0,0,97.55,71Zm-54.34-.24s0,0,0,0v0c-.12.94-.2,1.9-.24,2.87l.47.74c0-1,.09-1.94.2-2.89,0-.26,0-.51.07-.77ZM97.55,71l-.12.07-.12.06a.28.28,0,0,1-.12,0,.27.27,0,0,1-.12,0c0,.23.06.47.07.71l.42-.79A.25.25,0,0,0,97.55,71Zm-54.34-.24s0,0,0,0v0c-.12.94-.2,1.9-.24,2.87l.47.74c0-1,.09-1.94.2-2.89,0-.26,0-.51.07-.77ZM97.55,71l-.12.07-.12.06a.28.28,0,0,1-.12,0,.27.27,0,0,1-.12,0c0,.23.06.47.07.71l.42-.79A.25.25,0,0,0,97.55,71Zm-54.34-.24s0,0,0,0v0c-.12.94-.2,1.9-.24,2.87l.47.74c0-1,.09-1.94.2-2.89,0-.26,0-.51.07-.77ZM97.55,71l-.12.07-.12.06a.28.28,0,0,1-.12,0,.27.27,0,0,1-.12,0c0,.23.06.47.07.71l.42-.79A.25.25,0,0,0,97.55,71ZM43.2,70.75v0c-.12.94-.2,1.9-.24,2.87l.47.74c0-1,.09-1.94.2-2.89,0-.26,0-.51.07-.77h-.49S43.2,70.75,43.2,70.75ZM98.32,75h0c0-1,0-2-.14-2.92q-.06-.73-.15-1.47l0-.27C95.88,53.91,84.3,41.28,70.36,41.28,56.91,41.28,45.64,53.06,43,68.69c-.09.48-.16,1-.22,1.44,0,.21-.06.42-.08.63-.09.74-.16,1.49-.2,2.24-.07.92-.1,1.85-.1,2.79,0,.65,0,1.3,0,1.94,0,.85.1,1.68.19,2.51q0,.53.12,1.05c1.82,14,10.47,25.16,21.57,28.19l.5.13.51.12a22.91,22.91,0,0,0,13.11-.91l.51-.19.5-.21C89.07,104.34,96.33,94,98,81.3c0-.33.09-.67.12-1,.08-.73.14-1.47.17-2.22s.07-1.51.07-2.28C98.34,75.53,98.34,75.29,98.32,75ZM97,80.88h0c-1.52,12.26-8.41,22.35-17.57,26.43l-.5.22-.51.2a22,22,0,0,1-8.08,1.54,21.56,21.56,0,0,1-5-.59l-.51-.12-.5-.14c-10.54-3-18.74-13.72-20.54-27.08-.05-.33-.09-.66-.12-1-.1-.76-.16-1.54-.19-2.32s-.07-1.49-.07-2.24q0-.69,0-1.38c0-1,.09-1.94.2-2.89,0-.26,0-.51.07-.77s.08-.58.13-.86C46.07,54.22,57.12,42.3,70.36,42.3,84,42.3,95.27,54.89,97.07,71.19c0,.23.06.47.07.71.07.67.12,1.35.14,2s0,1.23,0,1.85c0,.1,0,.2,0,.3,0,.64,0,1.28-.06,1.91s-.06,1.12-.12,1.67S97.07,80.48,97,80.88ZM43.21,70.75s0,0,0,0v0c-.12.94-.2,1.9-.24,2.87l.47.74c0-1,.09-1.94.2-2.89,0-.26,0-.51.07-.77ZM97.55,71l-.12.07-.12.06a.28.28,0,0,1-.12,0,.27.27,0,0,1-.12,0c0,.23.06.47.07.71l.42-.79A.25.25,0,0,0,97.55,71Zm-54.34-.24s0,0,0,0v0c-.12.94-.2,1.9-.24,2.87l.47.74c0-1,.09-1.94.2-2.89,0-.26,0-.51.07-.77ZM97.55,71l-.12.07-.12.06a.28.28,0,0,1-.12,0,.27.27,0,0,1-.12,0c0,.23.06.47.07.71l.42-.79A.25.25,0,0,0,97.55,71Zm-54.34-.24s0,0,0,0v0c-.12.94-.2,1.9-.24,2.87l.47.74c0-1,.09-1.94.2-2.89,0-.26,0-.51.07-.77ZM97.55,71l-.12.07-.12.06a.28.28,0,0,1-.12,0,.27.27,0,0,1-.12,0c0,.23.06.47.07.71l.42-.79A.25.25,0,0,0,97.55,71Zm-54.34-.24s0,0,0,0v0c-.12.94-.2,1.9-.24,2.87l.47.74c0-1,.09-1.94.2-2.89,0-.26,0-.51.07-.77ZM97.55,71l-.12.07-.12.06a.28.28,0,0,1-.12,0,.27.27,0,0,1-.12,0c0,.23.06.47.07.71l.42-.79A.25.25,0,0,0,97.55,71Z"/><path class="cls-4" d="M80.83,91.14v3.54a7.42,7.42,0,0,1-7.39,7.39H68.68a7.42,7.42,0,0,1-7.39-7.39V91.14a.57.57,0,0,1,.58-.57H80.26A.56.56,0,0,1,80.83,91.14Z"/><path class="cls-5" d="M79.25,99.23a7.35,7.35,0,0,1-5.81,2.84H68.68a7.34,7.34,0,0,1-3.2-.74,5.36,5.36,0,0,1-.09-1,6.75,6.75,0,0,1,7-6.49A6.84,6.84,0,0,1,79.25,99.23Z"/><path d="M70,67.25S72.79,81,71,81.7s-5.09.49-4.43,2.79S71.8,87,72,86.13s-4.27-1.64-2.8-2.3,4.11-.16,4-3.94S70.49,61.33,70,67.25Z"/><path d="M81,69.13c0,2-.74,3.54-1.64,3.54s-1.65-1.59-1.65-3.54.74-3.53,1.65-3.53S81,67.18,81,69.13Z"/><path d="M61.46,69.13c0,2-.74,3.54-1.65,3.54s-1.64-1.59-1.64-3.54.74-3.53,1.64-3.53S61.46,67.18,61.46,69.13Z"/><circle class="cls-6" cx="53.87" cy="76.75" r="3.59"/><circle class="cls-6" cx="84.75" cy="76.75" r="3.59"/><path d="M97.75,70.86c-1.48,1-1.81,1.31-11.5-19-9-19-7.88,17.73-40.56,18.88S32.22,59.53,31.4,57.39s-11.33-13.14-3.94-28.9S57.19,6.15,72.29,18.8s15.77,17.41,16.1,15.76,2.13-7.55,4.1-7.22-2,8.21-.82,7.72,6.24-5.09,6.74-3.12-5.75,4.92-4.6,5.74,5.56,4.76,6.24,18.73C100.54,66.59,99.28,69.84,97.75,70.86Z"/><path d="M93.48,39s15.77,9.2,5.58,29.56c0,0,3-12.48,1.65-16.75C98.41,44.25,90.85,38.18,93.48,39Z"/><path d="M58.27,117.68l-.19-.55-.52.27-.68.38c-4.81,2.84-9,8.61-11.2,12.19l1,.32c2.2-3.46,6.08-8.8,10.54-11.52l.31-.19C58.7,122,60.34,127.87,60,133c.33,0,.66.07,1,.09C61.38,127.49,59.48,121.08,58.27,117.68Z"/><path d="M88.06,118.6c-.31-.22-.62-.42-.94-.62l-.54-.33-.21.6a43.46,43.46,0,0,0-2.54,12.86l1-.28a42.15,42.15,0,0,1,2.28-11.64l.6.43a35,35,0,0,1,7.13,7.48l.1,0h0c.27-.13.54-.25.8-.39A35.8,35.8,0,0,0,88.06,118.6Z"/><path class="cls-3" d="M88.2,118.17c0,.14-.1.28-.14.43-.11.32-.23.66-.34,1a41.55,41.55,0,0,0-2,11l-.85.25-1,.28c-1.25.33-2.52.63-3.8.89a64.54,64.54,0,0,1-9.18,1.2l-1.26.07L61,133.09c-.34,0-.67-.05-1-.09l-.5-.05c.42-5-1.08-10.66-2.24-14.18q-.18-.52-.33-1a1.34,1.34,0,0,1-.07-.18,10.69,10.69,0,0,1,4-1.25c1.14-.1,2.32-.18,3.5-.24l.5,0,.51,0a84.42,84.42,0,0,1,10,0c.8,0,1.83-.06,3.15,0H79l.5,0c1.08,0,2.33.13,3.78.26A11.32,11.32,0,0,1,88.2,118.17Z"/><path class="cls-6" d="M62.7,119.35s-1-2.45.67-2.25.36,2.33.36,2.33,2.05-1.34,2.53,0S64,120.74,64,120.74s2.34.55,1.43,1.93c-.63,1-2.14-1-2.14-1s.67,1.74-.71,1.67-.51-2.1-.51-2.1-1.51,1.74-2,.28,1.82-1.27,1.82-1.27-2-1-1.47-1.86S62.7,119.35,62.7,119.35Z"/><circle class="cls-3" cx="63.02" cy="120.54" r="0.75"/><path class="cls-6" d="M72.12,121.83s-1-2.46.67-2.26.36,2.33.36,2.33,2-1.34,2.53,0-2.22,1.31-2.22,1.31,2.34.55,1.43,1.94c-.63,1-2.14-1-2.14-1s.67,1.74-.71,1.66-.51-2.1-.51-2.1-1.51,1.74-2,.28,1.82-1.27,1.82-1.27-2-1-1.47-1.85S72.12,121.83,72.12,121.83Z"/><circle class="cls-3" cx="72.44" cy="123.01" r="0.75"/><path class="cls-6" d="M64.29,128s-1-2.46.68-2.26.35,2.33.35,2.33,2.06-1.34,2.53,0-2.21,1.31-2.21,1.31,2.33.55,1.42,1.94c-.63,1-2.13-1-2.13-1s.67,1.74-.72,1.66-.51-2.1-.51-2.1-1.5,1.74-2,.28S63.5,129,63.5,129s-2-1-1.46-1.85S64.29,128,64.29,128Z"/><circle class="cls-3" cx="64.61" cy="129.22" r="0.75"/><path class="cls-6" d="M79.81,127.31s-1-2.45.67-2.25.36,2.33.36,2.33,2.06-1.34,2.53,0-2.21,1.31-2.21,1.31,2.33.55,1.42,1.94c-.63,1-2.14-.95-2.14-.95s.68,1.74-.71,1.66-.51-2.1-.51-2.1-1.5,1.74-2,.28S79,128.26,79,128.26s-2-1-1.46-1.85S79.81,127.31,79.81,127.31Z"/><circle class="cls-3" cx="80.13" cy="128.5" r="0.75"/><path class="cls-6" d="M82.15,119.07s-1-2.45.67-2.26.36,2.34.36,2.34,2-1.35,2.53,0-2.22,1.3-2.22,1.3,2.34.56,1.43,1.94c-.63,1-2.14-1-2.14-1s.67,1.74-.71,1.66-.51-2.09-.51-2.09-1.51,1.74-2,.27S81.36,120,81.36,120s-2-1-1.46-1.86S82.15,119.07,82.15,119.07Z"/><circle class="cls-3" cx="82.47" cy="120.25" r="0.75"/></g></g></svg>