<svg xmlns="http://www.w3.org/2000/svg" viewBox="0 0 133.33 133.34"><defs><style>.cls-1{fill:#e2e2e2;}.cls-2{fill:#fff;}.cls-3{fill:#b5b5b5;}.cls-4{fill:#474747;}.cls-5{fill:#848484;}.cls-6{fill:#2d2d2d;}</style></defs><g id="Layer_2" data-name="Layer 2"><g id="OBJECTS"><path class="cls-1" d="M133.33,66.67a66.53,66.53,0,0,1-26.86,53.48h0A66.83,66.83,0,0,1,95,127h0c-.53.25-1.07.5-1.61.73l-.49.21c-.78.34-1.56.66-2.35,1h0q-2.3.9-4.66,1.6h0Q83,131.41,80,132a64.54,64.54,0,0,1-9.18,1.2c-1.39.1-2.78.14-4.19.14a66.54,66.54,0,0,1-13.92-1.46h0c-.72-.15-1.44-.32-2.15-.5s-1.23-.31-1.84-.48h0a64.43,64.43,0,0,1-7.5-2.59l-.43-.18A65.64,65.64,0,0,1,32,123.65a66.67,66.67,0,1,1,101.3-57Z"/><rect class="cls-2" x="57.02" y="102.5" width="17.33" height="16.17"/><path d="M56.51,102v17.19H74.87V102Zm17.33,16.16H57.53V103H73.84Z"/><path class="cls-3" d="M93.34,127.78l-.49.21c-.78.34-1.56.66-2.35,1h0q-2.3.9-4.66,1.6h0Q83,131.41,80,132a64.54,64.54,0,0,1-9.18,1.2c-1.39.1-2.78.14-4.19.14a66.54,66.54,0,0,1-13.92-1.46h0c-.72-.15-1.44-.32-2.15-.5s-1.23-.31-1.84-.48h0a64.43,64.43,0,0,1-7.5-2.59l-.43-.18c3.24-4.72,9-11.51,15-12.46a1.15,1.15,0,0,1,.71.25l.51.33c.16.11.32.23.51.35a12.4,12.4,0,0,0,5,2.07,16.45,16.45,0,0,0,3.82.16c.46,0,.9-.1,1.32-.16a21.17,21.17,0,0,0,2.49-.52,23.56,23.56,0,0,0,3.68-1.39l.51-.22.52-.23c.38-.15.76-.29,1.14-.4a6.57,6.57,0,0,1,2.52-.24C84.5,116.2,90.08,123,93.34,127.78Z"/><path class="cls-4" d="M55.8,115.67l1.09-1.13a10.82,10.82,0,0,0,8.38,2.88,26.66,26.66,0,0,0,9.87-2.88l.88,1.38a17,17,0,0,1-10.88,3.62C59,119.17,56.08,117.29,55.8,115.67Z"/><path class="cls-2" d="M39.35,63.83s-4.33-9.5-9.5-5.5S32.19,76,38.35,73.67,39.35,63.83,39.35,63.83Z"/><path d="M39.88,63.7l-.08-.12a19.18,19.18,0,0,0-1.9-3.16l-.5-.64c-.17-.2-.34-.39-.52-.58a8.11,8.11,0,0,0-2.63-2,5.36,5.36,0,0,0-.77-.26,4.47,4.47,0,0,0-3.94,1c-2.94,2.27-2.1,7.18-.09,10.78,1.71,3,4.49,5.7,7.37,5.74h.06l.45,0,.51-.08a6,6,0,0,0,.69-.2,4.8,4.8,0,0,0,3.14-3.05C42.59,68.15,40.4,64.49,39.88,63.7Zm.81,7.1a3.82,3.82,0,0,1-2.52,2.39,2.21,2.21,0,0,1-.42.12,3.18,3.18,0,0,1-.52.1,4.34,4.34,0,0,1-.51,0c-2.44-.12-4.91-2.58-6.37-5.2-1.81-3.23-2.64-7.57-.18-9.47a3.66,3.66,0,0,1,2.28-.88,3.47,3.47,0,0,1,.78.1,4.37,4.37,0,0,1,1.12.47,8.71,8.71,0,0,1,2.43,2.23c.18.22.35.45.51.68s.36.52.51.76a21.59,21.59,0,0,1,1.09,1.95l0,.07,0,.08C39.36,64.77,41.49,68.22,40.69,70.8Z"/><path class="cls-5" d="M38.52,66.67S34.69,59.5,32,62.5s6,10.33,7.17,8.5S38.52,66.67,38.52,66.67Z"/><path class="cls-2" d="M94,63.83s4.33-9.5,9.5-5.5S101.15,76,95,73.67,94,63.83,94,63.83Z"/><path d="M103.8,57.93a4.47,4.47,0,0,0-3.94-1,4.13,4.13,0,0,0-.5.15,8.06,8.06,0,0,0-3,2.26c-.17.18-.34.37-.5.56l-.49.65a18.86,18.86,0,0,0-1.76,3l0,0c-.31.45-2.85,4.38-1.87,7.52a4.81,4.81,0,0,0,3.13,3.05,2.07,2.07,0,0,0,.33.1,3.07,3.07,0,0,0,.5.13,4.43,4.43,0,0,0,.51.06h.31c2.9,0,5.72-2.68,7.44-5.74C105.9,65.11,106.74,60.2,103.8,57.93ZM96.24,73.41a3.75,3.75,0,0,1-1-.21h0a3.82,3.82,0,0,1-2.52-2.39c-.84-2.72,1.58-6.41,1.75-6.67h0l0-.07s.34-.71.9-1.63a9.23,9.23,0,0,1,.5-.79q.24-.36.51-.72a8.91,8.91,0,0,1,2.91-2.64,4.24,4.24,0,0,1,.84-.31,3.47,3.47,0,0,1,.78-.1,3.68,3.68,0,0,1,2.28.88c2.46,1.9,1.63,6.24-.18,9.47C101.45,71,98.8,73.55,96.24,73.41Z"/><path class="cls-5" d="M94.82,66.67s3.83-7.17,6.5-4.17-6,10.33-7.17,8.5S94.82,66.67,94.82,66.67Z"/><ellipse class="cls-2" cx="66.48" cy="70.17" rx="29.38" ry="34.5"/><path d="M95.36,64.27c0,.49,0,1,0,1.5.15-.23.32-.5.52-.78v-.82A1.92,1.92,0,0,1,95.36,64.27Zm-58.2.29q.29.38.51.72c0-.37,0-.74,0-1.11a2.89,2.89,0,0,1-.54-.24C37.17,64.14,37.16,64.35,37.16,64.56Zm59.2-3.65c0-.27,0-.53,0-.79l0-.75c-.18-5.2-.83-9.84-2.89-13.66a16.06,16.06,0,0,0-2.79-3.78,15.08,15.08,0,0,0-1.32-1.19c-4.69-3.8-12-5.59-22.83-5.59-10.58,0-17.42,2.23-21.83,5.88a17.74,17.74,0,0,0-3.34,3.61c-2.85,4.07-4,9.14-4.43,14.56,0,.23,0,.47-.05.71s0,.5,0,.75c-.06,1-.1,2-.13,3.07v.17c-.06,2.08-.06,4.18-.06,6.27,0,.12,0,.23,0,.35,0,1,0,1.94.12,2.89,0,.18,0,.35,0,.52s0,.35.06.52c1.39,13.33,9.2,24.37,19.69,28.73l.51.2.51.19a25.76,25.76,0,0,0,16.31.54l.51-.16.52-.18C86.15,99.9,94.69,88.43,96.14,74.44c0-.17,0-.34.06-.51s0-.34,0-.52q.11-1.32.12-2.67c0-.19,0-.38,0-.57,0-1,0-2,0-3s0-1.94,0-2.89V64C96.39,62.92,96.38,61.9,96.36,60.91Zm-1,4.86v1.39c0,1,0,2,0,3,0,.34,0,.69,0,1,0,.67,0,1.34-.1,2,0,.18,0,.35,0,.53s0,.35-.05.52c-1.38,13.49-9.49,24.58-20.26,28.43l-.52.19-.51.16a24.76,24.76,0,0,1-14.79,0c-.49-.15-1-.32-1.45-.51s-.73-.28-1.09-.44c-9.95-4.33-17.34-14.93-18.67-27.71,0-.17,0-.34-.05-.52s0-.35,0-.52c-.07-.74-.1-1.49-.11-2.24,0-.3,0-.6,0-.9,0-1.68,0-3.31.05-4.89,0-.37,0-.74,0-1.11q0-1.05.09-2.07c0-.3,0-.59,0-.88l.06-.8c.45-6.12,1.58-11.3,4.3-15.27a16.29,16.29,0,0,1,2.56-2.95c4.25-3.88,11-6,21.72-6C77,36.18,84.37,38,88.85,41.7a13.9,13.9,0,0,1,1.06,1,14.87,14.87,0,0,1,2.57,3.47c2.14,3.94,2.71,8.89,2.84,14.45,0,.29,0,.59,0,.89s0,.63,0,1c0,.61,0,1.23,0,1.85S95.36,65.26,95.35,65.77Z"/><path class="cls-6" d="M37,63.83s2.83,2.17,4.5-3,4-19.5,3-20-8.5-1.66-9,.17S32,63,37,63.83Z"/><path class="cls-6" d="M96.58,63.83s-2.83,2.17-4.5-3-4-19.5-3-20,8.5-1.66,9,.17S101.58,63,96.58,63.83Z"/><path d="M94.69,45s-6.84,5.17-31,4.5c-18-.5-20.34-3.67-29.17-9.17s-5.33-19.5-4.17-18.66,10.5,9.5,17.5,7.5,23.67-16.34,40.34-9.84S99.52,42,94.69,45Z"/><path d="M63.69,58.17s2,22,.66,21.83S57,78.86,57.69,82.83c.5,3,7.66,4.5,7.83,3.17s-6.17-.67-5.33-3.5c.4-1.38,5.66.5,6.16-1.67S65,50.33,63.69,58.17Z"/><path d="M55.69,90.67s1.5,4.83,10.83,4.83,9-5.33,9.83-5.33S77.52,97,66.35,97,53.19,89.5,55.69,90.67Z"/><path d="M55.69,62.42c0,2.16-.56,3.91-1.25,3.91s-1.25-1.75-1.25-3.91.56-3.92,1.25-3.92S55.69,60.25,55.69,62.42Z"/><path d="M79.19,62.42c0,2.16-.56,3.91-1.25,3.91s-1.25-1.75-1.25-3.91.56-3.92,1.25-3.92S79.19,60.25,79.19,62.42Z"/><path d="M84.52,58.17s-9.67-3.5-9.67-4.17,0-2.33.67-2.5,9.33,1.83,9.67,2.33S85.19,58.17,84.52,58.17Z"/><path d="M46.65,58.17s9.67-3.5,9.67-4.17,0-2.33-.67-2.5S46.32,53.33,46,53.83,46,58.17,46.65,58.17Z"/><circle class="cls-3" cx="49.64" cy="71.29" r="3.62"/><circle class="cls-3" cx="83.64" cy="71.29" r="3.62"/></g></g></svg>