<svg xmlns="http://www.w3.org/2000/svg" viewBox="0 0 133.33 133.34"><defs><style>.cls-1{fill:#e2e2e2;}.cls-2{fill:#fff;}.cls-3{fill:#9b9b9b;}.cls-4{fill:#b5b5b5;}.cls-5{fill:#848484;}.cls-6{fill:#757575;}</style></defs><g id="Layer_2" data-name="Layer 2"><g id="OBJECTS"><path class="cls-1" d="M133.33,66.67A66.65,66.65,0,0,1,95,127h0A65.69,65.69,0,0,1,80,132a67.23,67.23,0,0,1-27.29-.12h0a65.59,65.59,0,0,1-11.5-3.57,66.68,66.68,0,1,1,92.11-61.64Z"/><rect class="cls-2" x="58.36" y="101.34" width="17.33" height="16.17"/><path d="M57.89,100.86V118H76.17V100.86ZM75.22,117H58.84V101.81H75.22Z"/><path class="cls-3" d="M95,127.05A65.69,65.69,0,0,1,80,132a67.23,67.23,0,0,1-27.29-.12h0a65.59,65.59,0,0,1-11.5-3.57c2.87-4.55,8.69-12.51,15.08-13.69h0a7.9,7.9,0,0,1,.83-.12l.75-.07c.16,0,.31,0,.47,0l.48,0a107.73,107.73,0,0,1,13-.16c.85,0,2-.06,3.4,0l.48,0,.47,0c1.07.05,2.29.13,3.7.26a8.8,8.8,0,0,1,1.89.38C85.87,116.11,91.3,122.25,95,127.05Z"/><path class="cls-4" d="M54.53,114.5s26.83,1.84,27.5.17-1.17-4-.33-4.5.5-3.17,0-3.5-27.17-.5-27.5.83.83,2.84.5,3.5S51,114.5,54.53,114.5Z"/><path class="cls-2" d="M36.86,49.84S30.2,41.5,26.2,51.34s9.66,10.83,9.66,10.83Z"/><path d="M37.23,49.54a8.54,8.54,0,0,0-.66-.73,4.25,4.25,0,0,0-.37-.36l-.07-.07a5,5,0,0,0-.42-.36,7,7,0,0,0-.58-.47l-.27-.19a1.37,1.37,0,0,0-.2-.13,4.92,4.92,0,0,0-.45-.28,5.57,5.57,0,0,0-3.56-.84c-2,.29-3.65,2-4.89,5-1.07,2.62-1,4.9.13,6.77,1.77,2.85,5.68,4,8,4.44l.47.09.26,0,.22,0c.54.08.89.11.95.11l.47,0,.48-6,.3-3.67.27-3.37ZM36,54.19l0,.28L36,55l-.55,6.7-.58-.09a.69.69,0,0,1-.2,0l-.28,0-.47-.09c-2.22-.45-5.69-1.52-7.2-4-1-1.6-1-3.59-.06-5.91,1.1-2.73,2.5-4.23,4.15-4.47a3.88,3.88,0,0,1,.48,0,5.36,5.36,0,0,1,2.87,1,5.15,5.15,0,0,1,.45.32,4,4,0,0,1,.39.3l.08.07c.34.28.63.55.86.78l.46.5Z"/><path class="cls-5" d="M36,54.5s-3.33-6.83-6.67-3.16,6.17,7.33,6.17,7.33Z"/><path class="cls-2" d="M96.46,49.84s6.67-8.34,10.67,1.5-9.67,10.83-9.67,10.83Z"/><path d="M107.57,51.16c-1.24-3.06-2.89-4.76-4.9-5a5.44,5.44,0,0,0-3.34.72l-.52.31-.47.31-.45.34-.31.26c-.27.23-.51.45-.71.65h0s0,0,0,0c-.44.43-.71.77-.75.81l-.12.15.21,2.61.28,3.45L97,62.68l.47,0,.51,0,.48-.06h0l.46-.07c2.27-.39,6.59-1.49,8.47-4.53C108.59,56.06,108.64,53.78,107.57,51.16ZM99,61.48l-.47.08h0l-.46.07-.15,0L97.35,55l0-.48-.22-2.63L97,50l.07-.08.27-.29c.18-.18.4-.4.66-.63l.27-.24.18-.14a4.17,4.17,0,0,1,.47-.36c.15-.11.3-.22.46-.32a4.88,4.88,0,0,1,3.21-.88c1.65.24,3,1.74,4.15,4.47,1,2.32.93,4.31-.06,5.91C105,60,101.16,61.09,99,61.48Z"/><path class="cls-5" d="M97.3,54.5s3.33-6.83,6.66-3.16-6.16,7.33-6.16,7.33Z"/><path class="cls-2" d="M98.53,60.5C98.53,81.77,84.17,99,66.45,99S34.36,81.77,34.36,60.5c0-10.63-.09-24.74,5.71-31.7S57.59,22,66.45,22c7.75,0,19.83-.57,25.37,4.92C99,34,98.53,48.54,98.53,60.5Z"/><path d="M99,52c0-.78,0-1.56,0-2.34,0-.46,0-.93,0-1.39,0-.19,0-.38,0-.57l0-.54c-.46-8.18-2-15.9-6.65-20.56-5.23-5.17-15.89-5.11-23.69-5.06H65.81c-9,0-20.29,0-26.1,7-3.25,3.91-4.69,9.88-5.32,16.3-.07.72-.13,1.43-.18,2.16a4.58,4.58,0,0,0,0,.53c0,.18,0,.36,0,.54C34.06,49.2,34,50.4,34,51.58c-.07,2.16-.08,4.29-.09,6.36V60.5c0,.3,0,.6,0,.9s0,.32,0,.48,0,.33,0,.49a45.08,45.08,0,0,0,1,7.8C38.5,87,51.28,99.48,66.45,99.48c15.69,0,28.83-13.37,31.88-31.09A46,46,0,0,0,99,62.46c0-.16,0-.32,0-.49s0-.32,0-.49,0-.65,0-1V58.14C99,56.12,99,54.05,99,52ZM66.45,98.53c-16.86,0-30.68-16-31.57-36,0-.16,0-.32,0-.48s0-.32,0-.49c0-.35,0-.71,0-1.06V58.38c0-1.82,0-3.74.06-5.7,0-1.31.08-2.64.16-4,0-.08,0-.15,0-.23s0-.23,0-.35l0-.36a1.55,1.55,0,0,1,0-.22c.49-7.19,1.8-14.24,5.31-18.45,5.38-6.47,16-6.62,24.7-6.62h3.34c7.63,0,18.07-.11,23,4.79,4.6,4.56,6,12.32,6.4,20.53,0,.16,0,.32,0,.47s0,.09,0,.13l0,.6c0,.44,0,.89,0,1.33,0,1,0,2,.05,2.92,0,1.8,0,3.58,0,5.33V60.5c0,.38,0,.76,0,1.13,0,.16,0,.32,0,.47s0,.33,0,.49C97.11,82.59,83.3,98.53,66.45,98.53Z"/><path d="M98.46,52.17S99,48,97.29,48s-3,33-6.83,33.34c-3.6.31-15.44-6.44-20.18-7.25-4-.19-5.77-.09-6.58-.09-4,0-17.17,7.67-21,7.34S37.53,48,35.86,48s-1.16,4.17-1.16,4.17c-.5,21.5,1.66,41.5,5.16,47.83,2.89,5.22,20.56,5.12,26.72,4.93,6.15.19,23.83.29,26.71-4.93C96.79,93.67,99,73.67,98.46,52.17Z"/><path class="cls-6" d="M75.82,79.86v2.25a9.26,9.26,0,0,1-1.22,4.62A9.43,9.43,0,0,1,57,82.11V79.86a.94.94,0,0,1,.94-.94h17A.93.93,0,0,1,75.82,79.86Z"/><path class="cls-3" d="M74.6,86.73A9.41,9.41,0,0,1,58.31,87a11.38,11.38,0,0,1,16.29-.25Z"/><path d="M34.57,46.8s2,4.62,3.75-.13S33.7,27.42,55.7,25.42,90.2,22.8,93.57,36.67s4,15,5.5,12.75-3.5-29.75-8-32.87-48.25-6.5-53.25,4.87S34.57,46.8,34.57,46.8Z"/><path d="M88.86,44.17S77.53,42,77.36,41s-.5-3.83.67-4,12.17,2,12.33,2.67S90,44.5,88.86,44.17Z"/><path d="M47.05,44.17S58.39,42,58.55,41s.5-3.83-.66-4-12.17,2-12.34,2.67S45.89,44.5,47.05,44.17Z"/><path d="M55.36,52.17c0,2-.89,3.67-2,3.67s-2-1.64-2-3.67.9-3.67,2-3.67S55.36,50.14,55.36,52.17Z"/><path d="M82.53,52.17c0,2-.9,3.67-2,3.67s-2-1.64-2-3.67.9-3.67,2-3.67S82.53,50.14,82.53,52.17Z"/><path d="M67.2,47.34S69,65,67.36,66.5s-7.09.43-4.83,4.67c1.33,2.5,7.67,1.33,6.33.5s-5.83-.5-4.83-2,5-1.17,5.33-3.17S69,40.5,67.2,47.34Z"/><circle class="cls-4" cx="87.36" cy="62" r="4.5"/><circle class="cls-4" cx="47.2" cy="62" r="4.5"/><path d="M64.21,50.1a14.23,14.23,0,0,0-5.54-9.92,14,14,0,0,0-5.36-2.54A13.64,13.64,0,0,0,50,37.25,14.3,14.3,0,0,0,36.14,48.32a.13.13,0,0,0,0,.06c0,.1-.05.2-.07.3s0,.17-.05.25l-.09.56a14.86,14.86,0,0,0-.14,2A14,14,0,0,0,36,54.19a13.74,13.74,0,0,0,.35,1.44c.12.38.24.74.39,1.1a13.77,13.77,0,0,0,1,2A14.31,14.31,0,0,0,43.16,64a14,14,0,0,0,6.53,1.76H50a14.26,14.26,0,0,0,14.1-12.19,14,14,0,0,0,.15-2.06A13,13,0,0,0,64.21,50.1ZM51.65,62.63a10.84,10.84,0,0,1-1.62.12,11.25,11.25,0,0,1-4.42-21.59,11.2,11.2,0,0,1,10.56.92,11.24,11.24,0,0,1-4.52,20.55Z"/><path d="M97,49.91c0-.2,0-.41-.08-.61l-.09-.53a.06.06,0,0,1,0,0,1,1,0,0,0,0-.17,13.78,13.78,0,0,0-.89-2.77,14.26,14.26,0,0,0-13-8.54,15,15,0,0,0-1.79.11,13.9,13.9,0,0,0-3.85,1.06,14.3,14.3,0,0,0-8.48,11.13c0,.11,0,.22,0,.32a14.7,14.7,0,0,0-.09,1.63,14.26,14.26,0,0,0,.11,1.74,13.07,13.07,0,0,0,.49,2.35,14.27,14.27,0,0,0,15.51,10,14.38,14.38,0,0,0,10.72-7.44,13.81,13.81,0,0,0,1-2.44,13.26,13.26,0,0,0,.37-1.41,13.67,13.67,0,0,0,.27-2.5c0-.11,0-.23,0-.34A13.86,13.86,0,0,0,97,49.91ZM91,59.3a11.14,11.14,0,0,1-8,3.45h-.06a11.25,11.25,0,0,1,0-22.5A11.24,11.24,0,0,1,91,59.3Z"/><path d="M63.88,53.78l-2-2.22c1.72-1.57,5.94-3.59,9.57,0L69.3,53.73C66.81,51.24,64.17,53.51,63.88,53.78Z"/></g></g></svg>