<svg xmlns="http://www.w3.org/2000/svg" viewBox="0 0 133.33 133.34"><defs><style>.cls-1{fill:#e2e2e2;}.cls-2{fill:#fff;}.cls-3{fill:#b5b5b5;}.cls-4{fill:#9b9b9b;}.cls-5{fill:#848484;}</style></defs><g id="Layer_2" data-name="Layer 2"><g id="OBJECTS"><path class="cls-1" d="M133.33,66.67a66.53,66.53,0,0,1-26.86,53.48h0A66.83,66.83,0,0,1,95,127h0c-.69.33-1.39.64-2.1.94s-1.56.66-2.35,1h0q-2.3.9-4.66,1.6h0Q83,131.41,80,132a64.54,64.54,0,0,1-9.18,1.2c-1.39.1-2.78.14-4.19.14a66.54,66.54,0,0,1-13.92-1.46h0c-.72-.15-1.44-.32-2.15-.5s-1.23-.31-1.84-.48h0a64.43,64.43,0,0,1-7.5-2.59,66.68,66.68,0,1,1,92.11-61.64Z"/><rect class="cls-2" x="52.53" y="99.8" width="13.93" height="15.07"/><path d="M52,99.22v16.23H67V99.22Zm13.92,15.06H53.11v-13.9H65.87Z"/><path class="cls-3" d="M93.18,128.54l-.33-.55a66.24,66.24,0,0,0-4.67-6.83c-.72-.91-1.48-1.83-2.28-2.72a31.87,31.87,0,0,0-4.6-4.27,18.84,18.84,0,0,0-3.09-1.93,16,16,0,0,0-1.55-.66A11.18,11.18,0,0,0,74,111c-2.95-.26-5.21-.36-6.92-.37H65.87q-.59,0-1.08,0a103.91,103.91,0,0,0-11.68,0l-.58,0-.58,0c-1.3.07-2.59.16-3.84.27a11.92,11.92,0,0,0-4,1.15,16.26,16.26,0,0,0-2,1.11,27.94,27.94,0,0,0-4.89,4.09c-.3.31-.59.63-.89,1A54.91,54.91,0,0,0,32,123.65a66,66,0,0,0,9.19,4.66,64.43,64.43,0,0,0,7.5,2.59h0l1.48,0,10,.29h1.68L72,130.94l2.89-.08,10.9-.31h0Z"/><path class="cls-4" d="M81.3,114.17c-9.61,6.16-25.83,12.72-39.21-.93a16.26,16.26,0,0,1,2-1.11c5.12,3.59,18,10.15,34.14.11A18.84,18.84,0,0,1,81.3,114.17Z"/><path class="cls-4" d="M88.18,121.16c-1.21,1-4,3.28-7.36,5.71-1.85,1.33-3.88,2.71-5.91,4-1.37.85-2.73,1.65-4.06,2.34-1.39.1-2.78.14-4.19.14a66.54,66.54,0,0,1-13.92-1.46h0c-.72-.15-1.44-.32-2.15-.5l-.36-.44a28.89,28.89,0,0,1-9.67-7.64c-1.68-2-3.08-3.64-4.23-5,.3-.32.59-.64.89-1,2.4,2.44,4.67,4.83,4.67,4.83s15.55,15.11,36.57,2a52.24,52.24,0,0,0,7.46-5.72Z"/><path class="cls-2" d="M31.35,68.67s-8.24-7.81-10.94-.28S32.92,79.48,33.06,78.2,31.35,68.67,31.35,68.67Z"/><path d="M31.92,68.55l0-.18-.12-.12c-.05,0-.42-.39-1-.86L30.18,67l-.56-.39a11.51,11.51,0,0,0-4.39-2,5,5,0,0,0-2,0c-1.55.37-2.7,1.56-3.41,3.54a5.72,5.72,0,0,0,1.62,6.26c2.44,2.47,6.55,4,9.24,4.42l.61.09L32,79h.32a2.24,2.24,0,0,0,.77-.1.8.8,0,0,0,.59-.67C33.79,76.92,32.11,69.4,31.92,68.55Zm-9.45,5.24c-1.67-1.6-2.18-3.35-1.51-5.2a3.88,3.88,0,0,1,2.58-2.8,3.57,3.57,0,0,1,.8-.09,5.61,5.61,0,0,1,2.08.45h0A13.53,13.53,0,0,1,29.56,68l.57.45.56.46,0,0,.11.1c.25,1.12.54,2.48.81,3.82a0,0,0,0,1,0,0c.16.78.31,1.54.44,2.25v0a25.26,25.26,0,0,1,.4,2.76,4.55,4.55,0,0,1-.8,0l-.64-.1-.61-.12A17.83,17.83,0,0,1,22.47,73.79Z"/><path class="cls-5" d="M31.5,72.51s-5.4-5.68-7.82-3.12,8.24,8.38,8.38,6.39A6.26,6.26,0,0,0,31.5,72.51Z"/><ellipse class="cls-2" cx="58.83" cy="69.01" rx="28.71" ry="34.58"/><path d="M59,33.84h-.54c-15.3.22-27.82,14.61-28.85,32.72,0,.23,0,.45,0,.68s0,.47,0,.71,0,.43,0,.65h0c0,.14,0,.26,0,.4,0,.59,0,1.18,0,1.77a40.91,40.91,0,0,0,.53,5.12c.09.58.2,1.16.32,1.73.05.21.09.42.14.63s.09.41.15.61c2.92,12,11,21.37,21.23,24.32l.58.16.58.14a24.14,24.14,0,0,0,5.72.68,24.62,24.62,0,0,0,7-1,5.8,5.8,0,0,0,.59-.19,5.62,5.62,0,0,0,.58-.19c7.39-2.59,13.58-8.59,17.3-16.49h0A40.37,40.37,0,0,0,88.12,69C88.12,49.69,75.08,34,59,33.84Zm8,67.69-.58.21-.59.19a23.64,23.64,0,0,1-7,1.08,23.16,23.16,0,0,1-5.72-.71l-.58-.15L52,102c-9.52-2.9-17.12-11.69-20-23a5.45,5.45,0,0,1-.14-.58,5.63,5.63,0,0,1-.14-.59c-.13-.55-.24-1.1-.33-1.66a36.23,36.23,0,0,1-.53-4.34h0c-.08-.93-.11-1.88-.11-2.83v-.15c0-.24,0-.49,0-.73a6.1,6.1,0,0,1,0-.74C31.44,49.45,43.69,35.1,58.69,35h.14C74.34,35,87,50.26,87,69A39.35,39.35,0,0,1,83.73,84.8C80.27,92.76,74.27,98.86,67,101.53Z"/><path d="M27.52,67.11c.34.25,3.41,4,6.11-.28s3.55-15.49,5-15.49,11.8-3.7,17.77-11.8,2-17.34-4.69-17.62-14.5.85-17.34,11.37-1.56,10.37-4.83,12.93S20,61.57,27.52,67.11Z"/><path d="M58.93,62.85s3.39,15.58.75,15.54-5.63.09-5.44,1.8c.46,4.18,7,4.45,6.58,3.12s-4.17-.91-4-2.65,5.31.38,5.31-3S59.87,56.22,58.93,62.85Z"/><path d="M49.12,88.15s2,6.39,10.09,6.39,10.09-6.39,10.94-6.25-.71,7.53-10.51,7.53C48.41,95.82,47,86.44,49.12,88.15Z"/><path d="M51.91,62.94c0,2.36-.89,4.27-2,4.27s-2-1.91-2-4.27.89-4.26,2-4.26S51.91,60.59,51.91,62.94Z"/><path d="M72,62.94c0,2.36-.89,4.27-2,4.27s-2-1.91-2-4.27.89-4.26,2-4.26S72,60.59,72,62.94Z"/><circle class="cls-3" cx="43.01" cy="70.81" r="4.55"/><circle class="cls-3" cx="76.93" cy="70.81" r="4.55"/><path d="M57.93,22.77s-.85,11.08,2.56,17.48S71,45.51,75,46.22s6.39,4.41,4.69,12.36S73.85,71,80.53,79.76s4.83,11.94.28,20.18-7.1,20.18-.56,26.44,30.27,2,29.84-19-9.52-22-3.27-37.09,7.39-36.81-1-43.92-12.08-.85-16.49-2.84-9.66-13.79-19-12.65S58.5,18.51,57.93,22.77Z"/><path d="M58.83,35c.38.36.66,18.41-19.94,14.29l-.29,2s20,4.64,21.75-14.69Z"/></g></g></svg>