<svg xmlns="http://www.w3.org/2000/svg" viewBox="0 0 408.65 426.82"><defs><style>.cls-1,.cls-3{fill:#ebebeb;}.cls-2{opacity:0.54;}.cls-3{opacity:0.47;}.cls-4{fill:#fd3c3d;}.cls-5{fill:#37474f;}.cls-6{fill:#ffc727;}.cls-7{opacity:0.2;}.cls-8{opacity:0.1;}.cls-9{fill:#263238;}.cls-10,.cls-11{fill:#fff;}.cls-11{opacity:0.4;}.cls-12{fill:#dbdbdb;}.cls-13{opacity:0.16;}.cls-14{fill:#cecccc;}.cls-15{fill:#191a1f;}</style></defs><g id="Layer_2" data-name="Layer 2"><g id="Background_Complete" data-name="Background Complete"><path class="cls-1" d="M47.08,273.85l-14.84.28-7.51.11c-2.51.05-5,0-7.55.06h-.45v-.45l-.05-12.63v-.5h.5l15,.06c5,0,10,.11,14.95.16h.27v.27c0,2.14-.09,4.27-.13,6.37Zm0,0-.15-6.37c0-2.11-.11-4.19-.13-6.26l.28.27c-5,.05-10,.16-14.95.16l-15,.07.5-.5-.06,12.63-.44-.45c2.47,0,4.93,0,7.4.06l7.43.11Z"/><path class="cls-1" d="M30.4,289.78l-14.83.28-7.52.11c-2.51.05-5,0-7.55.06H.06v-.45L0,277.15v-.5H.5l15,.06c5,0,10,.11,15,.16h.27v.27c0,2.14-.08,4.26-.13,6.37Zm0,0-.14-6.38c-.05-2.1-.12-4.18-.13-6.25l.27.27c-5,.05-10,.16-14.95.16L.5,277.65l.5-.5L1,289.78l-.45-.45c2.47,0,4.93,0,7.4.06l7.43.11Z"/><path class="cls-1" d="M30.4,16.42l-14.83.28-7.52.11c-2.51.05-5,0-7.55.06H.06v-.45L0,3.79V3.28H.5l15,.06c5,0,10,.11,15,.16h.27v.27c0,2.14-.08,4.26-.13,6.37Zm0,0L30.26,10c-.05-2.1-.12-4.18-.13-6.25l.27.27c-5,.05-10,.16-14.95.16L.5,4.29l.5-.5L1,16.42.5,16C3,16,5.43,16,7.9,16l7.43.11Z"/><path class="cls-1" d="M408.38,16.42l-14.84.28-7.51.11c-2.51.05-5,0-7.55.06H378v-.45l0-12.63V3.28h.5l14.95.06c5,0,10,.11,14.95.16h.27v.27c0,2.14-.09,4.26-.13,6.37Zm0,0L408.23,10c0-2.1-.11-4.18-.13-6.25l.28.27c-5,.05-10,.16-14.95.16l-14.95.07.5-.5-.06,12.63-.44-.45c2.47,0,4.93,0,7.4.06l7.43.11Z"/><path class="cls-1" d="M391.7,32.35l-14.83.28-7.52.11c-2.51,0-5,0-7.55.06h-.44v-.45l-.06-12.63v-.51h.5l14.95.06c5,0,10,.11,14.95.16H392v.27c0,2.14-.08,4.26-.13,6.37Zm0,0L391.56,26c-.05-2.1-.12-4.18-.13-6.25l.27.27c-5,.05-10,.16-14.95.16l-14.95.07.5-.5-.05,12.63-.45-.45c2.47,0,4.93,0,7.4.06l7.43.11Z"/><path class="cls-1" d="M315.13,180.14l-14.83.28-7.52.11c-2.51.05-5,0-7.55.06h-.44v-.45l-.06-12.63V167h.5l14.95.06c5,0,10,.12,14.95.17h.28v.27c0,2.14-.08,4.27-.13,6.38Zm0,0-.14-6.37c-.05-2.11-.11-4.19-.13-6.26l.27.27c-5,.05-10,.16-14.95.17l-14.95.06.5-.5-.05,12.63-.45-.44c2.47,0,4.93,0,7.4.05l7.44.11Z"/><path class="cls-1" d="M298.45,196.07l-14.83.28-7.51.11c-2.51,0-5,0-7.55.06h-.45v-.45l-.05-12.63v-.5h.5l14.94.06c5,0,10,.12,14.95.17h.28v.27c0,2.14-.09,4.27-.13,6.38Zm0,0-.14-6.37c0-2.11-.11-4.19-.13-6.26l.27.27c-5,0-10,.16-14.95.17l-14.94.06.5-.5L269,196.07l-.44-.44c2.46,0,4.92,0,7.4.05l7.43.11Z"/><path class="cls-1" d="M281.84,180.14l-14.83.28-7.52.11c-2.51.05-5,0-7.54.06h-.45v-.45l-.05-12.63V167H252l14.94.06c5,0,10,.12,14.95.17h.28v.27c0,2.14-.08,4.27-.13,6.38Zm0,0-.14-6.37c-.05-2.11-.11-4.19-.13-6.26l.27.27c-5,.05-10,.16-14.95.17L252,168l.49-.5-.05,12.63-.44-.44c2.46,0,4.92,0,7.39.05l7.44.11Z"/><path class="cls-1" d="M408.38,289.78l-14.84.28-7.51.11c-2.51.05-5,0-7.55.06H378v-.45l0-12.63v-.5h.5l14.95.06c5,0,10,.11,14.95.16h.27v.27c0,2.14-.09,4.26-.13,6.37Zm0,0-.15-6.38c0-2.1-.11-4.18-.13-6.25l.28.27c-5,.05-10,.16-14.95.16l-14.95.07.5-.5-.06,12.63-.44-.45c2.47,0,4.93,0,7.4.06l7.43.11Z"/><path class="cls-1" d="M154.36,54l-14.83.28-7.51.11c-2.51,0-5,0-7.55,0H124V54l0-12.64v-.5h.5l14.95.07c5,0,10,.11,14.94.16h.28v.27c0,2.14-.09,4.27-.13,6.38Zm0,0-.14-6.38c0-2.1-.11-4.18-.13-6.26l.27.28c-5,0-10,.16-14.94.16l-14.95.06.5-.5L124.91,54l-.44-.45c2.46,0,4.93,0,7.4.06l7.43.11Z"/><g class="cls-2"><path class="cls-1" d="M377.66,137.68l5.89-9.49-2.91-1.8a2.68,2.68,0,0,1-1.23-2.5,13.31,13.31,0,0,0,0-1.67,2.67,2.67,0,0,1,1.39-2.41l3-1.62-5.28-9.84-3,1.61a2.62,2.62,0,0,1-2.77-.18c-.46-.31-.94-.61-1.42-.88a2.63,2.63,0,0,1-1.4-2.4l.11-3.42-11.17-.35-.1,3.43a2.66,2.66,0,0,1-1.56,2.31l-.73.37-.72.41a2.63,2.63,0,0,1-2.77,0l-2.93-1.81L344.23,117l2.91,1.8a2.66,2.66,0,0,1,1.23,2.5,15.54,15.54,0,0,0-.06,1.67,2.64,2.64,0,0,1-1.38,2.4l-3,1.62,5.28,9.85,3-1.62a2.66,2.66,0,0,1,2.77.18,15.87,15.87,0,0,0,1.42.87,2.66,2.66,0,0,1,1.4,2.41l-.11,3.42,11.16.35L369,139a2.66,2.66,0,0,1,1.55-2.3l.74-.37c.25-.13.48-.27.72-.41a2.65,2.65,0,0,1,2.78,0Zm-9.45-7.05A9.15,9.15,0,1,1,372,118.24,9.14,9.14,0,0,1,368.21,130.63Z"/><path class="cls-1" d="M56,245.22l5.89-9.49L59,233.92a2.62,2.62,0,0,1-1.23-2.49c0-.56.06-1.11.05-1.67a2.65,2.65,0,0,1,1.38-2.41l3-1.62-5.28-9.84-3,1.61a2.62,2.62,0,0,1-2.77-.18,16,16,0,0,0-1.42-.88,2.66,2.66,0,0,1-1.4-2.41l.11-3.41-11.16-.35-.11,3.43A2.65,2.65,0,0,1,35.57,216l-.74.37-.71.41a2.63,2.63,0,0,1-2.77,0L28.42,215l-5.89,9.5,2.91,1.8a2.64,2.64,0,0,1,1.23,2.5,15.45,15.45,0,0,0-.05,1.67,2.63,2.63,0,0,1-1.39,2.4l-3,1.62,5.28,9.84,3-1.61a2.62,2.62,0,0,1,2.77.18c.46.31.93.6,1.42.87a2.66,2.66,0,0,1,1.4,2.41l-.1,3.42,11.16.35.11-3.43a2.64,2.64,0,0,1,1.55-2.3l.74-.37.71-.41a2.67,2.67,0,0,1,2.79,0Zm-9.45-7.05a9.15,9.15,0,1,1,3.74-12.39A9.14,9.14,0,0,1,46.52,238.17Z"/><path class="cls-1" d="M170.31,63.44l-3.91-6.77-2.08,1.2a1.87,1.87,0,0,1-1.95-.07,11.12,11.12,0,0,0-1-.59,1.84,1.84,0,0,1-1-1.65V53.17H152.5v2.39a1.85,1.85,0,0,1-1,1.65c-.35.18-.69.38-1,.59a1.87,1.87,0,0,1-2,.07l-2.07-1.2-3.91,6.77,2.08,1.2a1.87,1.87,0,0,1,.91,1.73c0,.19,0,.38,0,.58s0,.38,0,.57a1.86,1.86,0,0,1-.9,1.72l-2.09,1.21,3.91,6.77,2.08-1.2a1.87,1.87,0,0,1,1.95.07,9.19,9.19,0,0,0,1,.59,1.86,1.86,0,0,1,1,1.65v2.4h7.83v-2.4a1.85,1.85,0,0,1,1-1.65,11.53,11.53,0,0,0,1-.59,1.87,1.87,0,0,1,1.95-.07l2.08,1.2,3.91-6.77-2.08-1.2a1.85,1.85,0,0,1-.91-1.72c0-.2,0-.39,0-.58s0-.39,0-.58a1.86,1.86,0,0,1,.91-1.73ZM162.83,67a6.41,6.41,0,1,1-6.41-6.42A6.41,6.41,0,0,1,162.83,67Z"/></g><ellipse class="cls-3" cx="204.44" cy="405.75" rx="149.06" ry="21.08"/><path class="cls-4" d="M112,184.38,105.8,160l-49,12.46-6.49-25.5L89.47,57.6l19.44-4.94L127.81,127l15.69-4L150,148.71l-15.7,4,6.21,24.43Zm-33.6-44.81,24.25-6.16-8-31.56Z"/><path class="cls-4" d="M252.46,102.82a65.6,65.6,0,0,1-3.68,22.36,55.43,55.43,0,0,1-10.12,17.66,45.79,45.79,0,0,1-15.18,11.59,43.91,43.91,0,0,1-19,4.14,44.54,44.54,0,0,1-19.14-4.14A45.52,45.52,0,0,1,170,142.84a54.32,54.32,0,0,1-10-17.66,67.09,67.09,0,0,1-3.58-22.36A67.07,67.07,0,0,1,160,80.47a54.22,54.22,0,0,1,10-17.66A46.74,46.74,0,0,1,185.3,51.12a43.74,43.74,0,0,1,19.14-4.23,43.12,43.12,0,0,1,19,4.23,47,47,0,0,1,15.18,11.69,55.32,55.32,0,0,1,10.12,17.66A65.58,65.58,0,0,1,252.46,102.82Zm-29.62,0q0-12.87-5.16-20.88t-13.24-8q-8.48,0-13.52,8t-5.06,20.88q0,12.89,5.06,20.79t13.52,7.92q8.1,0,13.24-7.92T222.84,102.82Z"/><path class="cls-4" d="M305.28,179.67l4-24.88-49.94-8.09,4.21-26,71.5-66.32,19.8,3.21-12.27,75.73,16,2.59-4.23,26.16-16-2.59-4,24.88Zm-13-54.48,24.7,4,5.21-32.14Z"/><path class="cls-4" d="M163.11,29.17a12.89,12.89,0,0,1-5.71-1.24A14.09,14.09,0,0,1,153,24.66,14.88,14.88,0,0,1,150.15,20a14.71,14.71,0,0,1-1-5.38,14.28,14.28,0,0,1,1.07-5.49,15,15,0,0,1,2.95-4.65,14.25,14.25,0,0,1,4.46-3.21A13.28,13.28,0,0,1,163.23.08a12.57,12.57,0,0,1,5.68,1.27,14.09,14.09,0,0,1,4.38,3.34,15.07,15.07,0,0,1,2.83,4.68,14.82,14.82,0,0,1,1,5.33,14.52,14.52,0,0,1-1,5.48,14.75,14.75,0,0,1-2.91,4.6A13.84,13.84,0,0,1,168.73,28,13.21,13.21,0,0,1,163.11,29.17Zm-8.32-14.55a11.49,11.49,0,0,0,.57,3.6A9.51,9.51,0,0,0,157,21.29a8.18,8.18,0,0,0,2.63,2.14,8.12,8.12,0,0,0,7.11,0,8.23,8.23,0,0,0,2.63-2.2A9.9,9.9,0,0,0,171,18.12a11.63,11.63,0,0,0,.55-3.5,11.21,11.21,0,0,0-.59-3.59A9.77,9.77,0,0,0,169.27,8a7.74,7.74,0,0,0-2.62-2.12,8.16,8.16,0,0,0-7.09,0,8,8,0,0,0-2.63,2.18,9.63,9.63,0,0,0-1.59,3.07A11.26,11.26,0,0,0,154.79,14.62Z"/><path class="cls-4" d="M190.66,29.37a11.63,11.63,0,0,1-4.64-.89,10.49,10.49,0,0,1-3.5-2.4,10.7,10.7,0,0,1-2.2-3.5,11.42,11.42,0,0,1-.77-4.16,11.55,11.55,0,0,1,.77-4.2,10.66,10.66,0,0,1,2.2-3.49A10.51,10.51,0,0,1,186,8.32a11.63,11.63,0,0,1,4.64-.89,11.52,11.52,0,0,1,4.63.89,10.38,10.38,0,0,1,3.47,2.41,10.49,10.49,0,0,1,2.2,3.49,11.35,11.35,0,0,1,.77,4.2,11.21,11.21,0,0,1-.77,4.16,10.65,10.65,0,0,1-2.18,3.5,10.16,10.16,0,0,1-3.47,2.4A11.65,11.65,0,0,1,190.66,29.37Zm-5.53-10.95a7.49,7.49,0,0,0,.42,2.57,6.53,6.53,0,0,0,1.18,2,5.23,5.23,0,0,0,1.75,1.31,5.42,5.42,0,0,0,4.37,0A5.33,5.33,0,0,0,194.6,23a6.2,6.2,0,0,0,1.17-2,7.41,7.41,0,0,0,.43-2.59,7.24,7.24,0,0,0-.43-2.54,6,6,0,0,0-1.17-2A5.08,5.08,0,0,0,190.66,12a5,5,0,0,0-2.18.48,5.45,5.45,0,0,0-1.75,1.34,6.29,6.29,0,0,0-1.18,2A7.48,7.48,0,0,0,185.13,18.42Z"/><path class="cls-4" d="M218.05,29.37a8.34,8.34,0,0,1-4.36-1.11,7.93,7.93,0,0,1-2.91-3V37.57h-5.41V7.8h4.72v3.63a8.75,8.75,0,0,1,3-2.93,8.48,8.48,0,0,1,4.29-1.07,9,9,0,0,1,4,.87,9.85,9.85,0,0,1,3.14,2.34,11.18,11.18,0,0,1,2.06,3.48,12.13,12.13,0,0,1,.74,4.22,13.49,13.49,0,0,1-.68,4.32,11.16,11.16,0,0,1-1.92,3.52,9.08,9.08,0,0,1-2.93,2.34A8.14,8.14,0,0,1,218.05,29.37Zm-1.82-4.61a4.9,4.9,0,0,0,2.25-.52,5.35,5.35,0,0,0,1.75-1.42,6.42,6.42,0,0,0,1.13-2.06,7.32,7.32,0,0,0,.41-2.42,6.71,6.71,0,0,0-.45-2.48,5.9,5.9,0,0,0-1.23-2,5.68,5.68,0,0,0-1.86-1.34,5.57,5.57,0,0,0-2.32-.48,5.16,5.16,0,0,0-1.57.26,5.85,5.85,0,0,0-1.5.75,6.28,6.28,0,0,0-1.23,1.13,4.8,4.8,0,0,0-.83,1.41v5a7.28,7.28,0,0,0,2.22,3A5.07,5.07,0,0,0,216.23,24.76Z"/><path class="cls-4" d="M239,29.37a16.21,16.21,0,0,1-5.21-.85,12.86,12.86,0,0,1-4.37-2.42l2-3.4a17.24,17.24,0,0,0,3.78,2.08,10.17,10.17,0,0,0,3.66.71,4.57,4.57,0,0,0,2.54-.61,1.94,1.94,0,0,0,.93-1.73,1.73,1.73,0,0,0-1.09-1.66,23.79,23.79,0,0,0-3.56-1.21c-1.37-.38-2.54-.74-3.51-1.09A9.08,9.08,0,0,1,231.83,18a4.09,4.09,0,0,1-1.3-1.54,4.89,4.89,0,0,1-.4-2.08,6.58,6.58,0,0,1,.63-2.91,6.33,6.33,0,0,1,1.75-2.2,8.26,8.26,0,0,1,2.65-1.39,10.55,10.55,0,0,1,3.29-.49,14.14,14.14,0,0,1,4.47.69,10.92,10.92,0,0,1,3.81,2.22l-2.18,3.27a12.71,12.71,0,0,0-3.13-1.77,8.49,8.49,0,0,0-3-.57,4.33,4.33,0,0,0-2.3.57,2,2,0,0,0-.93,1.81,1.73,1.73,0,0,0,.22.93,2,2,0,0,0,.71.65,6.53,6.53,0,0,0,1.27.54c.53.18,1.18.36,2,.55,1.45.38,2.7.75,3.74,1.13a10.53,10.53,0,0,1,2.54,1.29,4.7,4.7,0,0,1,1.46,1.68,5.12,5.12,0,0,1,.46,2.28,5.9,5.9,0,0,1-2.3,4.91A9.91,9.91,0,0,1,239,29.37Z"/><path class="cls-4" d="M252.11,18.18V0h5.41V18.18Zm0,10.78v-6.1h5.41V29Z"/><rect class="cls-5" x="189.53" y="270.55" width="35.51" height="2.91"/><rect class="cls-5" x="189.53" y="274.34" width="35.51" height="2.91"/><rect class="cls-5" x="189.53" y="278.13" width="35.51" height="2.91"/><rect class="cls-5" x="189.53" y="281.92" width="35.51" height="2.91"/><rect class="cls-5" x="189.53" y="285.71" width="35.51" height="2.91"/><rect class="cls-5" x="172.9" y="361.3" width="67.52" height="2.91"/><rect class="cls-5" x="172.9" y="365.09" width="67.52" height="2.91"/><rect class="cls-5" x="172.9" y="368.88" width="67.52" height="2.91"/><rect class="cls-5" x="172.9" y="372.67" width="67.52" height="2.91"/><rect class="cls-5" x="172.9" y="376.46" width="67.52" height="2.91"/><path class="cls-6" d="M143.27,246.5c0-.39-14.78-5.35-14.78-5.35l.88-50.89L149,186.05Z"/><path class="cls-7" d="M143.27,246.5c0-.39-14.78-5.35-14.78-5.35l.88-50.89L149,186.05Z"/><path class="cls-6" d="M278.93,266.48c.1-.38,15.72.06,15.72.06l16.69-48.08-17-10.72Z"/><path class="cls-7" d="M278.93,266.48c.1-.38,15.72.06,15.72.06l16.69-48.08-17-10.72Z"/><path class="cls-6" d="M140.42,265.24s5.49-82.3,10.31-109.37c0,0,99.42,7.52,153.08,28,0,0-27.67,96.13-29.1,100.9C274.71,284.8,204.71,271,140.42,265.24Z"/><path class="cls-8" d="M229.16,166.86q-2.43,14.87-4.94,29.71l-5.13,29.68-.28-.42,33.32,7.91,16.63,4,16.62,4.11-16.7-3.74L252,234.33l-33.34-7.79-.34-.08.06-.34,5.31-29.64Q226.35,181.66,229.16,166.86Z"/><path class="cls-8" d="M225.51,172.51A1.94,1.94,0,0,1,222.3,174a2,2,0,0,1-.66-1.46,2,2,0,0,1,.66-1.46,2,2,0,0,1,1.46-.48A2,2,0,0,1,225.51,172.51Zm0,0a1.64,1.64,0,0,0-.55-1.2,1.57,1.57,0,1,0-1.2,2.76,1.62,1.62,0,0,0,1.2-.36A1.64,1.64,0,0,0,225.51,172.51Z"/><path class="cls-8" d="M223.76,184.75a2,2,0,0,1-1.75,1.94,1.93,1.93,0,0,1-2.12-1.94,2,2,0,0,1,.66-1.46,1.94,1.94,0,0,1,3.21,1.46Zm0,0a1.6,1.6,0,0,0-.55-1.19,1.57,1.57,0,1,0,0,2.39A1.6,1.6,0,0,0,223.76,184.75Z"/><path class="cls-8" d="M221.61,197.69a2,2,0,0,1-1.75,1.94,2,2,0,0,1-1.46-.48,2,2,0,0,1-.66-1.46,2,2,0,0,1,.66-1.46,1.94,1.94,0,0,1,3.21,1.46Zm0,0a1.56,1.56,0,1,0-.55,1.2A1.6,1.6,0,0,0,221.61,197.69Z"/><path class="cls-8" d="M219.46,210.63a1.94,1.94,0,0,1-3.21,1.46,2,2,0,0,1-.66-1.46,2,2,0,0,1,.66-1.46,2,2,0,0,1,1.46-.47A1.93,1.93,0,0,1,219.46,210.63Zm0,0a1.6,1.6,0,0,0-.55-1.2,1.66,1.66,0,0,0-1.2-.36,1.58,1.58,0,0,0-1.37,1.56,1.56,1.56,0,0,0,2.57,1.2A1.6,1.6,0,0,0,219.46,210.63Z"/><path class="cls-8" d="M226.79,231.27a1.94,1.94,0,0,1-3.21,1.46,2,2,0,0,1,0-2.93,1.94,1.94,0,0,1,3.21,1.47Zm0,0a1.64,1.64,0,0,0-.55-1.2,1.57,1.57,0,1,0-1.2,2.76,1.58,1.58,0,0,0,1.75-1.56Z"/><path class="cls-8" d="M239,234.25a1.94,1.94,0,0,1-3.21,1.46,2,2,0,0,1,0-2.93,1.94,1.94,0,0,1,3.21,1.47Zm0,0a1.64,1.64,0,0,0-.55-1.2,1.57,1.57,0,1,0,0,2.39A1.63,1.63,0,0,0,239,234.25Z"/><path class="cls-8" d="M251.21,237.23a1.94,1.94,0,0,1-1.74,1.93,2.05,2.05,0,0,1-1.47-.47,1.94,1.94,0,0,1,1.47-3.4A1.94,1.94,0,0,1,251.21,237.23Zm0,0a1.56,1.56,0,1,0-.55,1.19A1.57,1.57,0,0,0,251.21,237.23Z"/><path class="cls-8" d="M263.43,240.2a2,2,0,0,1-1.75,1.94,2,2,0,0,1-1.46-.47,2,2,0,0,1,0-2.93,1.94,1.94,0,0,1,3.21,1.46Zm0,0a1.63,1.63,0,0,0-.55-1.19,1.57,1.57,0,1,0,0,2.39A1.64,1.64,0,0,0,263.43,240.2Z"/><path class="cls-8" d="M275.63,243.32a1.94,1.94,0,0,1-1.89,1.79,2,2,0,0,1-1.42-.58,2,2,0,0,1-.54-1.51,1.92,1.92,0,0,1,2.26-1.76A1.94,1.94,0,0,1,275.63,243.32Zm0,0a1.61,1.61,0,0,0-.45-1.24,1.64,1.64,0,0,0-1.17-.45,1.57,1.57,0,0,0-.24,3.11,1.55,1.55,0,0,0,1.86-1.42Z"/><path class="cls-8" d="M217.31,223.57A1.94,1.94,0,0,1,214.1,225a1.94,1.94,0,0,1,0-2.92,2,2,0,0,1,1.46-.47A1.93,1.93,0,0,1,217.31,223.57Zm0,0a1.6,1.6,0,0,0-.55-1.2,1.62,1.62,0,0,0-1.2-.36,1.57,1.57,0,1,0,1.2,2.76A1.6,1.6,0,0,0,217.31,223.57Z"/><circle class="cls-7" cx="177.87" cy="224.01" r="28.23" transform="translate(-104.17 176.36) rotate(-41.96)"/><circle class="cls-9" cx="177.87" cy="224.01" r="22.64" transform="translate(-94.6 311.06) rotate(-69.27)"/><rect class="cls-6" x="170.75" y="215.24" width="5.36" height="5.36" transform="translate(37.08 -24.93) rotate(9.2)"/><rect class="cls-6" x="166.31" y="209.09" width="5.36" height="5.36" transform="translate(36.04 -24.3) rotate(9.2)"/><rect class="cls-6" x="187.48" y="212.52" width="5.36" height="5.36" transform="translate(36.86 -27.64) rotate(9.2)"/><rect class="cls-6" x="162.9" y="230.14" width="5.36" height="5.36" transform="translate(39.36 -23.48) rotate(9.2)"/><rect class="cls-6" x="184.07" y="233.57" width="5.36" height="5.36" transform="translate(40.19 -26.83) rotate(9.2)"/><rect class="cls-6" x="169.05" y="225.71" width="5.36" height="5.36" transform="translate(38.73 -24.52) rotate(9.2)"/><rect class="cls-6" x="175.19" y="221.33" width="5.36" height="5.36" transform="translate(38.11 -25.56) rotate(9.2)"/><rect class="cls-6" x="181.33" y="216.96" width="5.36" height="5.36" transform="translate(37.49 -26.6) rotate(9.2)"/><rect class="cls-6" x="179.64" y="227.42" width="5.36" height="5.36" transform="translate(39.15 -26.2) rotate(9.2)"/><circle class="cls-6" cx="253.63" cy="235.85" r="28.23" transform="translate(-89.55 282.54) rotate(-50.67)"/><circle class="cls-7" cx="253.63" cy="235.85" r="28.23" transform="translate(-89.55 282.54) rotate(-50.67)"/><path class="cls-7" d="M281.1,242.38c-.13.55-.28,1.09-.45,1.63l-55-11.74c.13-1,.3-2,.53-3a28.24,28.24,0,1,1,54.94,13.06Z"/><circle class="cls-9" cx="253.63" cy="235.85" r="22.64" transform="translate(-71.32 116.01) rotate(-22.68)"/><rect class="cls-6" x="250.95" y="222.5" width="5.36" height="26.69" transform="translate(61.41 -52.25) rotate(13.37)"/><path class="cls-6" d="M282.74,241.85l-57.8-13.74a29.71,29.71,0,0,1,57.8,13.74Z"/><path class="cls-7" d="M282.74,241.85l-57.8-13.74a29.71,29.71,0,0,1,57.8,13.74Z"/><path class="cls-8" d="M204.51,252.63a10.52,10.52,0,0,1,2.61-6.36,7.65,7.65,0,0,1,3.07-2.06,8.5,8.5,0,0,1,3.7-.41,6.85,6.85,0,0,1,5.8,4.33,11.49,11.49,0,0,1,.59,6.85,18,18,0,0,0-2-6.14,5.86,5.86,0,0,0-4.61-3.06,7,7,0,0,0-5.49,1.6A14.82,14.82,0,0,0,204.51,252.63Z"/><path class="cls-10" d="M148.15,195.05c.24-3,.58-6,.86-9s.65-6,1-9,.74-6,1.12-9,.81-6,1.21-9l.11-.8.81.05q9.78.62,19.51,1.6c3.24.34,6.48.71,9.72,1.13s6.47.89,9.68,1.48l-19.52-1.21L153.17,160l.92-.75c-.44,3-.85,6-1.32,9s-.92,6-1.42,8.95-1,6-1.52,8.93S148.77,192.08,148.15,195.05Z"/><path class="cls-10" d="M152.85,217.86a24.67,24.67,0,0,1,4.52-10.09c.55-.75,1.17-1.45,1.78-2.17s1.33-1.33,2-2,1.47-1.18,2.22-1.76,1.58-1,2.39-1.51,1.7-.83,2.57-1.22l2.68-.93,2.77-.58c.94-.13,1.88-.16,2.82-.23a27.29,27.29,0,0,1,10.87,2.08,38.58,38.58,0,0,0-10.78-.71,25.42,25.42,0,0,0-10.08,3.12,29.59,29.59,0,0,0-8.17,6.75A33.21,33.21,0,0,0,152.85,217.86Z"/><path class="cls-10" d="M230.73,225.49a24.46,24.46,0,0,1,5.86-9.37c.65-.67,1.37-1.28,2.07-1.91s1.5-1.13,2.25-1.69,1.62-1,2.44-1.43,1.71-.81,2.58-1.18,1.8-.59,2.71-.85l2.79-.55,2.82-.18c.95,0,1.89.09,2.82.15A27.18,27.18,0,0,1,267.55,212,38.52,38.52,0,0,0,257,209.85a25.45,25.45,0,0,0-10.41,1.7,29.55,29.55,0,0,0-9,5.56A33,33,0,0,0,230.73,225.49Z"/><path class="cls-6" d="M143.58,316c-7.23,0-23.06-1.63-33.25-14.73-13-16.76-8.32-48.91-8.12-50.27l5.66.86c-.05.31-4.54,31.09,7,45.9,11.26,14.48,31.69,12.4,31.89,12.38l.65,5.68A34,34,0,0,1,143.58,316Z"/><path class="cls-11" d="M143.58,316c-7.23,0-23.06-1.63-33.25-14.73-13-16.76-8.32-48.91-8.12-50.27l5.66.86c-.05.31-4.54,31.09,7,45.9,11.26,14.48,31.69,12.4,31.89,12.38l.65,5.68A34,34,0,0,1,143.58,316Z"/><path class="cls-6" d="M109.54,255.71a20.1,20.1,0,0,1-3.16-.26c-9.55-1.55-13.78-7.26-15.64-11.78s-2.3-10-1.28-16.28l12.1,2c-.63,3.89-.44,7.31.52,9.65.68,1.66,2,3.66,6.26,4.34,1.94.32,4,.15,6.23-3.16a22.77,22.77,0,0,0,3.06-8.23l12.11,2a35.56,35.56,0,0,1-5,13.05C121,252.68,115.66,255.71,109.54,255.71Z"/><path class="cls-6" d="M155.54,332.34c0-.26-10.26-1.9-10.26-1.9l-5-33.4,12.4-4.9Z"/><path class="cls-7" d="M155.54,332.34c0-.26-10.26-1.9-10.26-1.9l-5-33.4,12.4-4.9Z"/><path class="cls-6" d="M256.73,332.4c0-.26,10.3-1.67,10.3-1.67l5.71-33.29-12.29-5.17Z"/><path class="cls-7" d="M256.73,332.4c0-.26,10.3-1.67,10.3-1.67l5.71-33.29-12.29-5.17Z"/><path class="cls-6" d="M151.28,284.66s82.79-3.54,110.75,1.12c0,0-8.21,80.11-8.66,81.66,0,0-82.35-.22-95.22,0C158.15,367.44,151.17,314.17,151.28,284.66Z"/><path class="cls-7" d="M176.43,306.61s45.19-1.78,60.45.57c0,0-4.48,40.39-4.72,41.17,0,0-45-.11-52,0C180.18,348.35,177.09,320.71,176.43,306.61Z"/><path class="cls-7" d="M182.6,348.34l-2.43,0s-3.08-27.65-3.75-41.75l2.83-.1Z"/><path class="cls-6" d="M195.93,316.58a4.81,4.81,0,1,0,3.14,6A4.81,4.81,0,0,0,195.93,316.58Zm2.58,5.85a4.22,4.22,0,1,1-2.75-5.29A4.21,4.21,0,0,1,198.51,322.43Zm-2.58-5.85a4.81,4.81,0,1,0,3.14,6A4.81,4.81,0,0,0,195.93,316.58Zm2.58,5.85a4.22,4.22,0,1,1-2.75-5.29A4.21,4.21,0,0,1,198.51,322.43Zm-2.58-5.85a4.81,4.81,0,1,0,3.14,6A4.81,4.81,0,0,0,195.93,316.58Zm2.58,5.85a4.22,4.22,0,1,1-2.75-5.29A4.21,4.21,0,0,1,198.51,322.43Zm-1-10.93a10.13,10.13,0,1,0,6.62,12.71A10.14,10.14,0,0,0,197.53,311.5Zm2.25,11.33a5.55,5.55,0,1,1-3.62-7A5.56,5.56,0,0,1,199.78,322.83Zm-.71-.22a4.81,4.81,0,1,0-6,3.14A4.81,4.81,0,0,0,199.07,322.61Zm-.56-.18a4.22,4.22,0,1,1-2.75-5.29A4.21,4.21,0,0,1,198.51,322.43Zm-2.58-5.85a4.81,4.81,0,1,0,3.14,6A4.81,4.81,0,0,0,195.93,316.58Zm2.58,5.85a4.22,4.22,0,1,1-2.75-5.29A4.21,4.21,0,0,1,198.51,322.43Zm-2.58-5.85a4.81,4.81,0,1,0,3.14,6A4.81,4.81,0,0,0,195.93,316.58Zm2.58,5.85a4.22,4.22,0,1,1-2.75-5.29A4.21,4.21,0,0,1,198.51,322.43Z"/><polygon class="cls-6" points="193.43 331.01 189.71 329.84 189.09 332.54 192.39 333.58 193.43 331.01"/><polygon class="cls-6" points="186.75 327.53 184.95 324.07 182.6 325.54 184.2 328.61 186.75 327.53"/><polygon class="cls-6" points="184.49 320.35 185.66 316.63 182.96 316.01 181.92 319.31 184.49 320.35"/><polygon class="cls-6" points="187.97 313.67 191.42 311.87 189.96 309.52 186.89 311.13 187.97 313.67"/><polygon class="cls-6" points="195.15 311.41 198.87 312.58 199.49 309.89 196.19 308.84 195.15 311.41"/><polygon class="cls-6" points="201.83 314.89 203.63 318.35 205.97 316.88 204.37 313.81 201.83 314.89"/><polygon class="cls-6" points="204.09 322.07 202.92 325.79 205.61 326.41 206.66 323.11 204.09 322.07"/><polygon class="cls-6" points="200.61 328.75 197.15 330.55 198.62 332.89 201.69 331.3 200.61 328.75"/><path class="cls-12" d="M212.27,330.72a3.23,3.23,0,1,0,.95,4.48A3.23,3.23,0,0,0,212.27,330.72Zm.62,4.26a2.84,2.84,0,1,1-.83-3.93A2.83,2.83,0,0,1,212.89,335Zm-.62-4.26a3.23,3.23,0,1,0,.95,4.48A3.23,3.23,0,0,0,212.27,330.72Zm.62,4.26a2.84,2.84,0,1,1-.83-3.93A2.83,2.83,0,0,1,212.89,335Zm-.62-4.26a3.23,3.23,0,1,0,.95,4.48A3.23,3.23,0,0,0,212.27,330.72Zm.62,4.26a2.84,2.84,0,1,1-.83-3.93A2.83,2.83,0,0,1,212.89,335Zm1.34-7.27a6.82,6.82,0,1,0,2,9.44A6.83,6.83,0,0,0,214.23,327.71Zm-.59,7.76a3.74,3.74,0,1,1-1.09-5.17A3.73,3.73,0,0,1,213.64,335.47Zm-.42-.27a3.24,3.24,0,1,0-4.48.94A3.24,3.24,0,0,0,213.22,335.2Zm-.33-.22a2.84,2.84,0,1,1-.83-3.93A2.83,2.83,0,0,1,212.89,335Zm-.62-4.26a3.23,3.23,0,1,0,.95,4.48A3.23,3.23,0,0,0,212.27,330.72Zm.62,4.26a2.84,2.84,0,1,1-.83-3.93A2.83,2.83,0,0,1,212.89,335Zm-.62-4.26a3.23,3.23,0,1,0,.95,4.48A3.23,3.23,0,0,0,212.27,330.72Zm.62,4.26a2.84,2.84,0,1,1-.83-3.93A2.83,2.83,0,0,1,212.89,335Z"/><polygon class="cls-12" points="208.04 339.62 205.84 338.19 204.95 339.83 206.9 341.1 208.04 339.62"/><polygon class="cls-12" points="204.34 336.16 203.79 333.59 202.01 334.12 202.49 336.4 204.34 336.16"/><polygon class="cls-12" points="204.17 331.09 205.6 328.89 203.97 328 202.69 329.96 204.17 331.09"/><polygon class="cls-12" points="207.63 327.39 210.2 326.85 209.68 325.06 207.39 325.55 207.63 327.39"/><polygon class="cls-12" points="212.7 327.22 214.9 328.65 215.79 327.02 213.84 325.75 212.7 327.22"/><polygon class="cls-12" points="216.4 330.69 216.94 333.25 218.73 332.73 218.25 330.45 216.4 330.69"/><polygon class="cls-12" points="216.57 335.76 215.14 337.95 216.77 338.85 218.05 336.89 216.57 335.76"/><polygon class="cls-12" points="213.1 339.46 210.54 340 211.06 341.79 213.35 341.3 213.1 339.46"/><polygon class="cls-6" points="260.03 358.12 263.21 358.71 272.31 297.08 268.69 296.42 260.03 358.12"/><path class="cls-6" d="M232.16,348.35l4.72-41.17,31.81-10.76S260,358.79,260,358.12Z"/><path class="cls-11" d="M232.16,348.35l4.72-41.17,31.81-10.76S260,358.79,260,358.12Z"/><path class="cls-10" d="M155.08,308.84c-.52-3.41-.8-6.85-1-10.29-.1-1.72-.14-3.44-.18-5.17s-.07-3.45,0-5.17l0-.45.44,0c6.32-.34,12.63-.75,18.95-1s12.64-.59,19-.79c-6.31.57-12.62,1-18.93,1.51s-12.62.85-18.93,1.28l.46-.48,0,5.15.06,5.15q0,2.58.09,5.16Z"/><path class="cls-10" d="M241.32,307.78q3-1.41,6-2.61c2-.82,4.05-1.6,6.11-2.31s4.14-1.4,6.25-2a57.57,57.57,0,0,1,6.39-1.5l.53-.08-.09.51c-.5,2.66-1,5.32-1.64,8,.23-2.71.55-5.4.9-8.09l.44.42c-2.1.5-4.18,1.09-6.26,1.7s-4.15,1.28-6.21,1.95Z"/><polygon class="cls-8" points="168.84 284.83 169.38 295.13 169.84 305.43 170.63 326.04 171.25 346.65 171.5 356.96 171.67 367.27 171.13 356.97 170.67 346.67 169.88 326.06 169.26 305.45 169.01 295.14 168.84 284.83"/><path class="cls-8" d="M165.89,291a2,2,0,0,1-1.33,2.24,2,2,0,0,1-1.52-.18,1.94,1.94,0,0,1-.58-2.86,1.93,1.93,0,0,1,3.43.8Zm0,0a1.6,1.6,0,0,0-.77-1.07,1.66,1.66,0,0,0-1.25-.12,1.57,1.57,0,0,0,.62,3.06,1.61,1.61,0,0,0,1.1-.59A1.58,1.58,0,0,0,165.89,291Z"/><path class="cls-8" d="M166.6,303.39a1.93,1.93,0,0,1-2.85,2.06,2,2,0,0,1-.94-1.3,1.92,1.92,0,0,1,.36-1.56,1.92,1.92,0,0,1,3.43.8Zm0,0a1.56,1.56,0,0,0-2-1.19,1.57,1.57,0,0,0,.62,3.06,1.61,1.61,0,0,0,1.1-.59A1.58,1.58,0,0,0,166.6,303.39Z"/><path class="cls-8" d="M167.05,316.49a1.93,1.93,0,1,1-3.43-.8,2,2,0,0,1,1.34-.75A2,2,0,0,1,167.05,316.49Zm0,0a1.58,1.58,0,0,0-.77-1.06,1.62,1.62,0,0,0-1.25-.12,1.57,1.57,0,0,0,.62,3.06,1.56,1.56,0,0,0,1.4-1.88Z"/><path class="cls-8" d="M167.5,329.6a1.93,1.93,0,1,1-2.09-1.55A1.94,1.94,0,0,1,167.5,329.6Zm0,0a1.56,1.56,0,1,0-1.4,1.88,1.57,1.57,0,0,0,1.4-1.88Z"/><path class="cls-8" d="M168,342.71a1.93,1.93,0,1,1-2.09-1.55A1.95,1.95,0,0,1,168,342.71Zm0,0a1.56,1.56,0,1,0-.3,1.28A1.56,1.56,0,0,0,168,342.71Z"/><path class="cls-8" d="M168.4,355.82a2,2,0,0,1-1.33,2.24,2,2,0,0,1-1.52-.17,2,2,0,0,1-.94-1.31A1.93,1.93,0,0,1,165,355a1.93,1.93,0,0,1,3.43.8Zm0,0a1.54,1.54,0,0,0-2-1.18,1.57,1.57,0,0,0,.62,3.05,1.56,1.56,0,0,0,1.4-1.87Z"/><rect class="cls-6" x="125.37" y="382.84" width="48.98" height="5.72" transform="translate(-105.43 60.05) rotate(-16.86)"/><rect class="cls-11" x="125.37" y="382.84" width="48.98" height="5.72" transform="translate(-105.43 60.05) rotate(-16.86)"/><rect class="cls-6" x="145.71" y="381.45" width="5.72" height="8.5" transform="translate(-109.92 63.17) rotate(-17.64)"/><polygon class="cls-6" points="126.87 403.57 114.77 351.19 78.26 359.85 96.24 410.89 126.87 403.57"/><polygon class="cls-6" points="134.97 400.9 126.87 403.57 114.77 351.19 126.42 353.96 134.97 400.9"/><polygon class="cls-7" points="134.97 400.9 126.87 403.57 114.77 351.19 126.42 353.96 134.97 400.9"/><circle class="cls-6" cx="173.3" cy="378.6" r="6.21"/><rect class="cls-6" x="256.98" y="361.12" width="5.72" height="48.98" transform="translate(-184.84 521.51) rotate(-73.02)"/><rect class="cls-11" x="256.98" y="361.12" width="5.72" height="48.98" transform="translate(-184.84 521.51) rotate(-73.02)"/><rect class="cls-6" x="256.88" y="382.75" width="8.5" height="5.72" transform="translate(-185.78 516.58) rotate(-72.23)"/><polygon class="cls-6" points="282.8 403.52 295 351.17 331.5 359.9 313.41 410.91 282.8 403.52"/><polygon class="cls-6" points="274.7 400.84 282.8 403.52 295 351.17 283.35 353.92 274.7 400.84"/><polygon class="cls-7" points="274.7 400.84 282.8 403.52 295 351.17 283.35 353.92 274.7 400.84"/><path class="cls-6" d="M230.2,378.44a6.22,6.22,0,1,0,6.23-6.2A6.22,6.22,0,0,0,230.2,378.44Z"/><path class="cls-6" d="M277.1,313.84c.15-.14,15.2-14.11,32.92-9.33,18.11,4.89,33.06,32.17,33.21,32.44l5-2.72C347.61,333,332,304.51,311.51,299c-20.86-5.63-37.65,10-38.35,10.7Z"/><path class="cls-11" d="M277.1,313.84c.15-.14,15.2-14.11,32.92-9.33,18.11,4.89,33.06,32.17,33.21,32.44l5-2.72C347.61,333,332,304.51,311.51,299c-20.86-5.63-37.65,10-38.35,10.7Z"/><path class="cls-6" d="M336.56,364.42l10.84-5.73a23,23,0,0,1-2.51-8.42c-.24-4,1.33-5.36,3.07-6.27,3.8-2,6.07-1.21,7.62-.3,2.17,1.28,4.38,3.91,6.22,7.39l10.84-5.72c-3-5.63-6.61-9.74-10.83-12.23s-11-4.5-19.58,0c-6.66,3.52-10.07,9.87-9.58,17.87A35.38,35.38,0,0,0,336.56,364.42Z"/><path class="cls-9" d="M279.39,294.73c2.35-1.63,4.76-3.16,7.17-4.67s4.86-3,7.31-4.44,4.92-2.88,7.42-4.24l3.76-2.05c1.27-.66,2.52-1.34,3.8-2-1.17.82-2.37,1.58-3.55,2.38L301.68,282c-2.41,1.52-4.86,3-7.31,4.44s-4.92,2.87-7.42,4.24S282,293.46,279.39,294.73Z"/><path class="cls-9" d="M273.16,318.13c3.37,1.92,6.56,4.08,9.7,6.31s6.22,4.56,9.13,7.12c-3.37-1.92-6.56-4.08-9.71-6.31S276.07,320.69,273.16,318.13Z"/><path class="cls-9" d="M278.69,315.25c2.6.79,5.15,1.68,7.71,2.59s5.08,1.86,7.61,2.83,5,2,7.52,3.06l3.74,1.6c1.23.57,2.47,1.1,3.69,1.7-1.3-.39-2.58-.83-3.87-1.24l-3.84-1.35c-2.55-.89-5.08-1.86-7.61-2.83s-5-2-7.52-3.06S281.14,316.42,278.69,315.25Z"/><path class="cls-9" d="M286.07,296.92c2.49-.64,5-1.18,7.51-1.71s5-1,7.55-1.44,5.06-.87,7.6-1.22l3.81-.53c1.28-.14,2.55-.31,3.83-.42-1.24.33-2.49.6-3.74.9l-3.77.81c-2.51.53-5,1-7.55,1.44s-5.06.86-7.6,1.22S288.63,296.68,286.07,296.92Z"/><g class="cls-13"><path class="cls-14" d="M226.06,312.49a26.71,26.71,0,0,1,2-5.87,23.73,23.73,0,0,1,3.3-5.28,12.86,12.86,0,0,1,5-3.76,8.86,8.86,0,0,1,6.31.07,8.42,8.42,0,0,1,4.51,4.46,10.24,10.24,0,0,1,.84,3.12,6.91,6.91,0,0,1-.37,3.26,3.08,3.08,0,0,1-1.1,1.42,2.28,2.28,0,0,1-.91.34,2,2,0,0,1-1-.1,2.79,2.79,0,0,1-1.3-1.31,8.27,8.27,0,0,1-.59-1.54,20.7,20.7,0,0,1-.52-6.31,26,26,0,0,1,3.65-12,15.89,15.89,0,0,1,4.34-4.61,13.24,13.24,0,0,1,5.89-2.27,16.52,16.52,0,0,1,3.14-.28,10.48,10.48,0,0,1,1.58.1,10.26,10.26,0,0,1,1.56.21,19.28,19.28,0,0,1,5.85,2.22,24.43,24.43,0,0,1,4.91,3.84,25.67,25.67,0,0,1,3.85,4.85,26.94,26.94,0,0,0-9-8.26,18.88,18.88,0,0,0-5.72-2,25.58,25.58,0,0,0-3-.23,16,16,0,0,0-3,.34,13,13,0,0,0-5.54,2.22,15,15,0,0,0-4.06,4.39,25.08,25.08,0,0,0-3.42,11.53,19.71,19.71,0,0,0,.44,6,3.55,3.55,0,0,0,1.31,2.24c.08,0,.13,0,.23,0s.2,0,.3,0a1.15,1.15,0,0,0,.53-.2,2,2,0,0,0,.76-1,6.08,6.08,0,0,0,.33-2.83,9.4,9.4,0,0,0-.75-2.84,7.84,7.84,0,0,0-4-4.12,8.14,8.14,0,0,0-5.81-.17,12.3,12.3,0,0,0-4.87,3.48A26.94,26.94,0,0,0,226.06,312.49Z"/><path class="cls-14" d="M133.66,338.41a14.15,14.15,0,0,1,4-4.64,15,15,0,0,1,5.6-2.68,11.94,11.94,0,0,1,6.25.12,12.5,12.5,0,0,1,5.34,3.33,15.69,15.69,0,0,1,3.34,5.33,14.44,14.44,0,0,1,1,6.22,5.14,5.14,0,0,1-1.16,3.13,2.4,2.4,0,0,1-1.68.76,3.7,3.7,0,0,1-1.72-.39,2.88,2.88,0,0,1-1.24-1.32,4.45,4.45,0,0,1-.38-1.68,9.23,9.23,0,0,1,.53-3.2,18.48,18.48,0,0,1,3.06-5.51,22.51,22.51,0,0,1,4.53-4.35,16.84,16.84,0,0,1,11.91-3.27,15.9,15.9,0,0,1,10.69,6,22.13,22.13,0,0,1,3.08,5.38,24.66,24.66,0,0,1,1.63,6,24.9,24.9,0,0,0-5.11-11A15.19,15.19,0,0,0,173,331.05a16.25,16.25,0,0,0-11.28,3.23,20.5,20.5,0,0,0-7.19,9.42,8.17,8.17,0,0,0-.51,2.85,2.42,2.42,0,0,0,1.1,2.21,2.77,2.77,0,0,0,1.25.29,1.45,1.45,0,0,0,1.05-.47,4.32,4.32,0,0,0,.93-2.56,13.88,13.88,0,0,0-1-5.85,15.52,15.52,0,0,0-3.12-5.07,11.92,11.92,0,0,0-5-3.22,11.36,11.36,0,0,0-5.93-.26A15.32,15.32,0,0,0,133.66,338.41Z"/><path class="cls-14" d="M87.39,96.91A26.87,26.87,0,0,0,84.49,85a12.43,12.43,0,0,0-3.9-4.54,8.21,8.21,0,0,0-5.68-1.22,7.9,7.9,0,0,0-4.88,3,9.44,9.44,0,0,0-1.41,2.59,6.13,6.13,0,0,0-.35,2.82,2.13,2.13,0,0,0,.5,1.15,1.36,1.36,0,0,0,.47.32,2.45,2.45,0,0,0,.29.08,1.92,1.92,0,0,0,.24,0c.68-.13,1.34-1,1.8-1.86a19.59,19.59,0,0,0,1.86-5.72,25.07,25.07,0,0,0-.57-12A14.94,14.94,0,0,0,70,64.45,13.05,13.05,0,0,0,65.12,61a15.83,15.83,0,0,0-2.84-1,9.36,9.36,0,0,0-1.49-.3,9.48,9.48,0,0,0-1.5-.2,19,19,0,0,0-6,.6,27,27,0,0,0-10.71,5.88,26.18,26.18,0,0,1,4.9-3.79,24.42,24.42,0,0,1,5.68-2.56,19.18,19.18,0,0,1,6.22-.76,10.2,10.2,0,0,1,1.56.17,10.19,10.19,0,0,1,1.56.28,16.64,16.64,0,0,1,3,1,13.18,13.18,0,0,1,5.18,3.61,15.66,15.66,0,0,1,3.11,5.52,25.88,25.88,0,0,1,.69,12.48,20.32,20.32,0,0,1-2,6,7.68,7.68,0,0,1-.94,1.36,2.8,2.8,0,0,1-1.57,1,2.09,2.09,0,0,1-1-.14,2.44,2.44,0,0,1-.8-.55,3,3,0,0,1-.73-1.64,6.88,6.88,0,0,1,.42-3.26,10.11,10.11,0,0,1,1.56-2.82,8.41,8.41,0,0,1,5.44-3.26A8.89,8.89,0,0,1,80.94,80a12.8,12.8,0,0,1,4,4.85,23.5,23.5,0,0,1,2,5.92A26.67,26.67,0,0,1,87.39,96.91Z"/><path class="cls-14" d="M308.21,149.08a27,27,0,0,0-12.22,0,12.38,12.38,0,0,0-5.33,2.73,8.14,8.14,0,0,0-2.5,5.24,7.83,7.83,0,0,0,1.81,5.45,9.13,9.13,0,0,0,2.19,2,6,6,0,0,0,2.66,1,2.07,2.07,0,0,0,1.23-.22,1.21,1.21,0,0,0,.42-.39,2,2,0,0,0,.14-.25c.05-.09,0-.16.06-.24,0-.69-.68-1.55-1.39-2.18a19.26,19.26,0,0,0-5.12-3.14,25,25,0,0,0-11.82-2.25,14.74,14.74,0,0,0-5.76,1.59,13.13,13.13,0,0,0-4.52,3.9,16.43,16.43,0,0,0-1.67,2.52,10,10,0,0,0-.64,1.37,9,9,0,0,0-.54,1.42,18.53,18.53,0,0,0-.83,6,26.94,26.94,0,0,0,3.21,11.79,26.41,26.41,0,0,1-2.54-5.66,24.44,24.44,0,0,1-1.16-6.12,19.27,19.27,0,0,1,.71-6.22,10.05,10.05,0,0,1,.53-1.48,9.28,9.28,0,0,1,.64-1.44,16.42,16.42,0,0,1,1.68-2.67,13.22,13.22,0,0,1,4.72-4.19,15.57,15.57,0,0,1,6.09-1.74,26,26,0,0,1,12.3,2.24,20.51,20.51,0,0,1,5.37,3.36,7.66,7.66,0,0,1,1.1,1.23,2.82,2.82,0,0,1,.57,1.75,2.17,2.17,0,0,1-.37.93,2.11,2.11,0,0,1-.72.64,2.92,2.92,0,0,1-1.76.34,7,7,0,0,1-3.08-1.17,10,10,0,0,1-2.37-2.18,8.41,8.41,0,0,1-1.91-6.05,8.88,8.88,0,0,1,2.84-5.64,12.71,12.71,0,0,1,5.64-2.74,23.65,23.65,0,0,1,6.21-.52A26.44,26.44,0,0,1,308.21,149.08Z"/><path class="cls-14" d="M246.3,84.38a16.89,16.89,0,0,1-.39-7.35,18.07,18.07,0,0,1,2.56-7A14.34,14.34,0,0,1,253.92,65a14.86,14.86,0,0,1,7.32-1.61,18.74,18.74,0,0,1,7.29,1.77,17.15,17.15,0,0,1,6.07,4.45,6.1,6.1,0,0,1,1.6,3.59,2.81,2.81,0,0,1-.78,2,4.32,4.32,0,0,1-1.77,1.09,3.32,3.32,0,0,1-2.11-.1,5.09,5.09,0,0,1-1.69-1.1,10.84,10.84,0,0,1-2.2-3.16,22.16,22.16,0,0,1-2-7.25,26.12,26.12,0,0,1,.23-7.49,20.13,20.13,0,0,1,7.42-12.73,19.15,19.15,0,0,1,6.7-3.33,19.4,19.4,0,0,1,7.43-.48,26.36,26.36,0,0,1,7.14,2,29.89,29.89,0,0,1,6.39,3.7,29.79,29.79,0,0,0-13.58-5.2,19,19,0,0,0-7.21.6,18.81,18.81,0,0,0-11,8.79,21,21,0,0,0-2.35,6.8,24.56,24.56,0,0,0,1.73,14.15,9.93,9.93,0,0,0,2,2.89,3,3,0,0,0,2.88,1,3.19,3.19,0,0,0,1.36-.82,1.9,1.9,0,0,0,.53-1.35,5.25,5.25,0,0,0-1.38-3,16.55,16.55,0,0,0-5.73-4.24,18.69,18.69,0,0,0-7-1.74,14.23,14.23,0,0,0-7,1.42,13.55,13.55,0,0,0-5.31,4.77A18.39,18.39,0,0,0,246.3,84.38Z"/><path class="cls-14" d="M130.31,338.63a4.25,4.25,0,1,0,2.78,5.33A4.25,4.25,0,0,0,130.31,338.63Zm2.28,5.17a3.73,3.73,0,1,1-2.43-4.68A3.73,3.73,0,0,1,132.59,343.8Zm-2.28-5.17a4.25,4.25,0,1,0,2.78,5.33A4.25,4.25,0,0,0,130.31,338.63Zm2.28,5.17a3.73,3.73,0,1,1-2.43-4.68A3.73,3.73,0,0,1,132.59,343.8Zm-2.28-5.17a4.25,4.25,0,1,0,2.78,5.33A4.25,4.25,0,0,0,130.31,338.63Zm2.28,5.17a3.73,3.73,0,1,1-2.43-4.68A3.73,3.73,0,0,1,132.59,343.8Zm-.86-9.67a9,9,0,1,0,5.85,11.25A9,9,0,0,0,131.73,334.13Zm2,10a4.91,4.91,0,1,1-3.21-6.16A4.93,4.93,0,0,1,133.72,344.16Zm-.63-.2a4.25,4.25,0,1,0-5.33,2.78A4.25,4.25,0,0,0,133.09,344Zm-.5-.16a3.73,3.73,0,1,1-2.43-4.68A3.73,3.73,0,0,1,132.59,343.8Zm-2.28-5.17a4.25,4.25,0,1,0,2.78,5.33A4.25,4.25,0,0,0,130.31,338.63Zm2.28,5.17a3.73,3.73,0,1,1-2.43-4.68A3.73,3.73,0,0,1,132.59,343.8Zm-2.28-5.17a4.25,4.25,0,1,0,2.78,5.33A4.25,4.25,0,0,0,130.31,338.63Zm2.28,5.17a3.73,3.73,0,1,1-2.43-4.68A3.73,3.73,0,0,1,132.59,343.8Z"/><polygon class="cls-14" points="128.1 351.39 124.81 350.36 124.26 352.74 127.18 353.66 128.1 351.39"/><polygon class="cls-14" points="122.19 348.31 120.6 345.26 118.52 346.56 119.94 349.27 122.19 348.31"/><polygon class="cls-14" points="120.19 341.96 121.22 338.68 118.84 338.12 117.92 341.05 120.19 341.96"/><polygon class="cls-14" points="123.27 336.05 126.32 334.46 125.03 332.39 122.31 333.8 123.27 336.05"/><polygon class="cls-14" points="129.62 334.06 132.91 335.09 133.46 332.71 130.54 331.79 129.62 334.06"/><polygon class="cls-14" points="135.53 337.13 137.12 340.19 139.19 338.89 137.78 336.18 135.53 337.13"/><polygon class="cls-14" points="137.53 343.49 136.49 346.77 138.88 347.32 139.8 344.4 137.53 343.49"/><polygon class="cls-14" points="134.45 349.39 131.39 350.99 132.69 353.06 135.41 351.65 134.45 349.39"/><path class="cls-14" d="M296.11,310.05A13.7,13.7,0,1,0,277,312.89,13.7,13.7,0,0,0,296.11,310.05Zm-5.86-4.35a6.39,6.39,0,1,1-1.33-8.94A6.39,6.39,0,0,1,290.25,305.7Z"/><polygon class="cls-14" points="279.4 314 275.17 310.87 273.18 314.03 276.95 316.83 279.4 314"/><polygon class="cls-14" points="272.41 306.61 271.64 301.39 267.99 302.23 268.68 306.86 272.41 306.61"/><polygon class="cls-14" points="272.7 296.43 275.83 292.2 272.67 290.21 269.88 293.97 272.7 296.43"/><polygon class="cls-14" points="280.1 289.43 285.31 288.66 284.47 285.02 279.84 285.7 280.1 289.43"/><polygon class="cls-14" points="290.27 289.72 294.5 292.86 296.49 289.69 292.73 286.9 290.27 289.72"/><polygon class="cls-14" points="297.27 297.12 298.04 302.33 301.69 301.5 301 296.86 297.27 297.12"/><polygon class="cls-14" points="296.98 307.3 293.84 311.53 297.01 313.52 299.8 309.75 296.98 307.3"/><polygon class="cls-14" points="289.58 314.29 284.37 315.06 285.2 318.71 289.84 318.02 289.58 314.29"/><path class="cls-14" d="M280.21,302.55l2.91,3.67,4.63-.69,1.72-4.35-2.91-3.67-4.63.68Zm5.51-1.88a1.49,1.49,0,1,1-2.08.31A1.49,1.49,0,0,1,285.72,300.67Z"/><path class="cls-14" d="M306.38,43.31A3.72,3.72,0,1,0,308.81,48,3.72,3.72,0,0,0,306.38,43.31Zm2,4.53a3.27,3.27,0,1,1-2.13-4.1A3.27,3.27,0,0,1,308.38,47.84Zm-2-4.53A3.72,3.72,0,1,0,308.81,48,3.72,3.72,0,0,0,306.38,43.31Zm2,4.53a3.27,3.27,0,1,1-2.13-4.1A3.27,3.27,0,0,1,308.38,47.84Zm-2-4.53A3.72,3.72,0,1,0,308.81,48,3.72,3.72,0,0,0,306.38,43.31Zm2,4.53a3.27,3.27,0,1,1-2.13-4.1A3.27,3.27,0,0,1,308.38,47.84Zm-.76-8.46a7.84,7.84,0,1,0,5.12,9.83A7.84,7.84,0,0,0,307.62,39.38Zm1.74,8.77a4.3,4.3,0,1,1-2.8-5.39A4.3,4.3,0,0,1,309.36,48.15Zm-.55-.18a3.72,3.72,0,1,0-4.66,2.43A3.71,3.71,0,0,0,308.81,48Zm-.43-.13a3.27,3.27,0,1,1-2.13-4.1A3.27,3.27,0,0,1,308.38,47.84Zm-2-4.53A3.72,3.72,0,1,0,308.81,48,3.72,3.72,0,0,0,306.38,43.31Zm2,4.53a3.27,3.27,0,1,1-2.13-4.1A3.27,3.27,0,0,1,308.38,47.84Zm-2-4.53A3.72,3.72,0,1,0,308.81,48,3.72,3.72,0,0,0,306.38,43.31Zm2,4.53a3.27,3.27,0,1,1-2.13-4.1A3.27,3.27,0,0,1,308.38,47.84Z"/><polygon class="cls-14" points="304.44 54.48 301.57 53.57 301.08 55.66 303.64 56.46 304.44 54.48"/><polygon class="cls-14" points="299.27 51.78 297.88 49.11 296.06 50.24 297.3 52.62 299.27 51.78"/><polygon class="cls-14" points="297.52 46.22 298.43 43.35 296.34 42.87 295.54 45.42 297.52 46.22"/><polygon class="cls-14" points="300.22 41.05 302.89 39.66 301.76 37.85 299.38 39.09 300.22 41.05"/><polygon class="cls-14" points="305.78 39.3 308.65 40.21 309.13 38.13 306.58 37.32 305.78 39.3"/><polygon class="cls-14" points="310.95 42 312.34 44.67 314.15 43.54 312.92 41.16 310.95 42"/><polygon class="cls-14" points="312.7 47.56 311.79 50.44 313.88 50.92 314.68 48.36 312.7 47.56"/><polygon class="cls-14" points="310 52.73 307.33 54.12 308.46 55.94 310.84 54.7 310 52.73"/><path class="cls-14" d="M268.17,186.17a3.72,3.72,0,1,0,2.42,4.67A3.72,3.72,0,0,0,268.17,186.17Zm2,4.53a3.27,3.27,0,1,1-2.13-4.09A3.26,3.26,0,0,1,270.16,190.7Zm-2-4.53a3.72,3.72,0,1,0,2.42,4.67A3.72,3.72,0,0,0,268.17,186.17Zm2,4.53a3.27,3.27,0,1,1-2.13-4.09A3.26,3.26,0,0,1,270.16,190.7Zm-2-4.53a3.72,3.72,0,1,0,2.42,4.67A3.72,3.72,0,0,0,268.17,186.17Zm2,4.53a3.27,3.27,0,1,1-2.13-4.09A3.26,3.26,0,0,1,270.16,190.7Zm-.75-8.46a7.84,7.84,0,1,0,5.12,9.84A7.84,7.84,0,0,0,269.41,182.24Zm1.74,8.77a4.3,4.3,0,1,1-2.81-5.39A4.31,4.31,0,0,1,271.15,191Zm-.56-.17a3.72,3.72,0,1,0-4.66,2.43A3.72,3.72,0,0,0,270.59,190.84Zm-.43-.14a3.27,3.27,0,1,1-2.13-4.09A3.26,3.26,0,0,1,270.16,190.7Zm-2-4.53a3.72,3.72,0,1,0,2.42,4.67A3.72,3.72,0,0,0,268.17,186.17Zm2,4.53a3.27,3.27,0,1,1-2.13-4.09A3.26,3.26,0,0,1,270.16,190.7Zm-2-4.53a3.72,3.72,0,1,0,2.42,4.67A3.72,3.72,0,0,0,268.17,186.17Zm2,4.53a3.27,3.27,0,1,1-2.13-4.09A3.26,3.26,0,0,1,270.16,190.7Z"/><polygon class="cls-14" points="266.23 197.34 263.35 196.44 262.87 198.52 265.43 199.33 266.23 197.34"/><polygon class="cls-14" points="261.06 194.65 259.66 191.97 257.85 193.11 259.09 195.49 261.06 194.65"/><polygon class="cls-14" points="259.31 189.09 260.21 186.21 258.13 185.73 257.32 188.29 259.31 189.09"/><polygon class="cls-14" points="262 183.92 264.68 182.53 263.54 180.71 261.16 181.95 262 183.92"/><polygon class="cls-14" points="267.56 182.17 270.44 183.08 270.92 180.99 268.36 180.18 267.56 182.17"/><polygon class="cls-14" points="272.73 184.86 274.12 187.54 275.94 186.4 274.7 184.03 272.73 184.86"/><polygon class="cls-14" points="274.48 190.42 273.57 193.3 275.66 193.78 276.46 191.22 274.48 190.42"/><polygon class="cls-14" points="271.79 195.59 269.11 196.99 270.25 198.8 272.62 197.56 271.79 195.59"/><path class="cls-14" d="M49.46,73.7a11.8,11.8,0,1,0-14.25,8.67A11.79,11.79,0,0,0,49.46,73.7Zm-6.11-1.49a5.51,5.51,0,1,1-4.05-6.65A5.5,5.5,0,0,1,43.35,72.21Z"/><polygon class="cls-14" points="37.53 82.43 33.12 81.36 32.6 84.53 36.52 85.49 37.53 82.43"/><polygon class="cls-14" points="29.5 78.9 27.14 75.03 24.53 76.91 26.63 80.36 29.5 78.9"/><polygon class="cls-14" points="26.32 70.73 27.39 66.32 24.21 65.81 23.26 69.73 26.32 70.73"/><polygon class="cls-14" points="29.85 62.7 33.72 60.35 31.84 57.73 28.39 59.83 29.85 62.7"/><polygon class="cls-14" points="38.02 59.52 42.43 60.6 42.94 57.42 39.02 56.46 38.02 59.52"/><polygon class="cls-14" points="46.05 63.05 48.4 66.93 51.02 65.05 48.92 61.6 46.05 63.05"/><polygon class="cls-14" points="49.23 71.22 48.15 75.63 51.33 76.15 52.29 72.23 49.23 71.22"/><polygon class="cls-14" points="45.7 79.25 41.82 81.61 43.7 84.22 47.15 82.12 45.7 79.25"/><path class="cls-14" d="M34.33,73.07,37.86,75l3.45-2.1-.09-4L37.68,67,34.23,69Zm3.74-3.34a1.28,1.28,0,1,1-1.54.94A1.28,1.28,0,0,1,38.07,69.73Z"/></g><path class="cls-15" d="M316,195.64a24.54,24.54,0,0,1-4.2-13.57c0-17.2,18.88-31.14,42.16-31.14s42.14,13.94,42.14,31.14S377.27,213.21,354,213.21c-11.29,0-21.52-3.27-29.08-8.62l-14.53,3.7Z"/><path class="cls-4" d="M316,195.64a24.84,24.84,0,0,1-4.3-12.83,24.57,24.57,0,0,1,3.36-13.17,33.11,33.11,0,0,1,9.27-10.06,44.12,44.12,0,0,1,12.23-6.22,56.69,56.69,0,0,1,13.46-2.69,57.92,57.92,0,0,1,13.73.7c1.12.23,2.27.38,3.38.68l3.33.89,3.25,1.15c1.08.39,2.11.92,3.17,1.37a40.67,40.67,0,0,1,11.32,7.83A28.86,28.86,0,0,1,395.52,175a23.6,23.6,0,0,1,.13,13.75,28.48,28.48,0,0,1-7.1,11.79,40.44,40.44,0,0,1-11.22,8,49.47,49.47,0,0,1-13.1,4.19,57.27,57.27,0,0,1-13.71.79A53.83,53.83,0,0,1,337,210.89a45,45,0,0,1-12.26-6.11l.18,0-14.55,3.58-.22.06.09-.21Zm0,0-5.55,12.69-.12-.15,14.49-3.81.1,0,.09.06a49.68,49.68,0,0,0,25.52,8.33,56.17,56.17,0,0,0,13.52-.9,48.5,48.5,0,0,0,12.86-4.16,39.45,39.45,0,0,0,10.94-7.81,27.64,27.64,0,0,0,6.85-11.41,22.66,22.66,0,0,0-.17-13.2,27.86,27.86,0,0,0-7-11.3,39.71,39.71,0,0,0-11-7.67c-1-.45-2-1-3.11-1.36l-3.19-1.13-3.27-.89c-1.09-.3-2.22-.45-3.32-.68a58.31,58.31,0,0,0-13.52-.74,55.75,55.75,0,0,0-13.3,2.54,43.13,43.13,0,0,0-12.11,6,33.5,33.5,0,0,0-9.24,9.81A24.24,24.24,0,0,0,312,182.8,24.68,24.68,0,0,0,316,195.64Z"/><path class="cls-4" d="M332.3,187.17v2.31h-9.43V175.9h9.26v2.31h-6.62v3.27h5.72v2.15h-5.72v3.54Z"/><path class="cls-4" d="M334.37,189.48V175.9h6a3.88,3.88,0,0,1,1.73.39,4.66,4.66,0,0,1,1.37,1,5,5,0,0,1,.9,1.46,4.46,4.46,0,0,1,.32,1.63,4.57,4.57,0,0,1-.66,2.41,3.74,3.74,0,0,1-1.79,1.55l3.1,5.11h-3l-2.78-4.55H337v4.55Zm2.64-6.87h3.31a1.35,1.35,0,0,0,.68-.17,1.61,1.61,0,0,0,.54-.47,2.12,2.12,0,0,0,.37-.7,2.63,2.63,0,0,0,.13-.86,2.5,2.5,0,0,0-.15-.88,2.43,2.43,0,0,0-.41-.7,2,2,0,0,0-.6-.46,1.65,1.65,0,0,0-.68-.16H337Z"/><path class="cls-4" d="M347.09,189.48V175.9h6a3.85,3.85,0,0,1,1.73.39,4.53,4.53,0,0,1,1.37,1,4.76,4.76,0,0,1,.9,1.46,4.28,4.28,0,0,1,.33,1.63,4.57,4.57,0,0,1-.66,2.41,3.74,3.74,0,0,1-1.79,1.55l3.1,5.11h-3l-2.77-4.55h-2.61v4.55Zm2.64-6.87H353a1.32,1.32,0,0,0,.68-.17,1.64,1.64,0,0,0,.55-.47,2.31,2.31,0,0,0,.36-.7,2.63,2.63,0,0,0,.14-.86,2.3,2.3,0,0,0-.16-.88,2.23,2.23,0,0,0-.41-.7,2,2,0,0,0-.59-.46,1.65,1.65,0,0,0-.68-.16h-3.2Z"/><path class="cls-4" d="M365.62,189.58a6.15,6.15,0,0,1-2.71-.58,6.74,6.74,0,0,1-2.09-1.55,7.14,7.14,0,0,1-1.35-2.21,7.24,7.24,0,0,1-.47-2.55,7,7,0,0,1,.5-2.6,7.18,7.18,0,0,1,1.4-2.2,6.48,6.48,0,0,1,2.12-1.52,6.19,6.19,0,0,1,2.66-.57,6,6,0,0,1,2.68.6,6.82,6.82,0,0,1,2.08,1.58,7.36,7.36,0,0,1,1.34,2.22,6.93,6.93,0,0,1,0,5.12,6.85,6.85,0,0,1-1.38,2.18,6.55,6.55,0,0,1-2.1,1.52A6.37,6.37,0,0,1,365.62,189.58Zm-3.94-6.89a5.35,5.35,0,0,0,.26,1.7,4.55,4.55,0,0,0,.78,1.46,3.81,3.81,0,0,0,1.24,1,3.79,3.79,0,0,0,3.37,0,3.93,3.93,0,0,0,1.25-1,4.72,4.72,0,0,0,.76-1.46,5.58,5.58,0,0,0,.26-1.66,5.14,5.14,0,0,0-.28-1.7,4.55,4.55,0,0,0-.78-1.46,3.81,3.81,0,0,0-1.25-1,3.58,3.58,0,0,0-1.65-.38,3.66,3.66,0,0,0-1.71.4,3.76,3.76,0,0,0-1.24,1,4.83,4.83,0,0,0-.76,1.46A5.46,5.46,0,0,0,361.68,182.69Z"/><path class="cls-4" d="M374.29,189.48V175.9h6a3.88,3.88,0,0,1,1.73.39,4.66,4.66,0,0,1,1.37,1,5,5,0,0,1,.9,1.46,4.46,4.46,0,0,1,.32,1.63,4.57,4.57,0,0,1-.66,2.41,3.74,3.74,0,0,1-1.79,1.55l3.1,5.11h-3l-2.78-4.55h-2.6v4.55Zm2.64-6.87h3.31a1.35,1.35,0,0,0,.68-.17,1.61,1.61,0,0,0,.54-.47,2.12,2.12,0,0,0,.37-.7,2.63,2.63,0,0,0,.13-.86,2.5,2.5,0,0,0-.15-.88,2.43,2.43,0,0,0-.41-.7,2,2,0,0,0-.6-.46,1.65,1.65,0,0,0-.68-.16h-3.19Z"/></g></g></svg>